STARTFONT 2.1
COMMENT
COMMENT Converted from OpenType font "avara.otf" by "otf2bdf 3.0".
COMMENT
FONT -FreeType-Avara-Medium-R-Normal--46-460-72-72-P-245-ISO10646-1
SIZE 46 72 72
FONTBOUNDINGBOX 61 67 -2 -15
STARTPROPERTIES 19
FOUNDRY "FreeType"
FAMILY_NAME "Avara"
WEIGHT_NAME "Medium"
SLANT "R"
SETWIDTH_NAME "Normal"
ADD_STYLE_NAME ""
PIXEL_SIZE 46
POINT_SIZE 460
RESOLUTION_X 72
RESOLUTION_Y 72
SPACING "P"
AVERAGE_WIDTH 245
CHARSET_REGISTRY "ISO10646"
CHARSET_ENCODING "1"
FONT_ASCENT 38
FONT_DESCENT 14
COPYRIGHT "Created by Raphael Bastide with FontForge 2.0 (http://fontforge.sf.net). Edited by Wei Huang and Lucas Le Bihan"
_OTF_FONTFILE "avara.otf"
_OTF_PSNAME "Avara-Bold"
ENDPROPERTIES
CHARS 216
STARTCHAR 0020
ENCODING 32
SWIDTH 326 0
DWIDTH 15 0
BBX 0 0 0 0
BITMAP
ENDCHAR
STARTCHAR 0021
ENCODING 33
SWIDTH 239 0
DWIDTH 11 0
BBX 7 37 2 0
BITMAP
7C
FE
FE
FE
FE
FE
FE
FE
FE
FE
FE
FC
FC
FC
7C
7C
78
78
78
78
78
70
70
70
30
30
00
00
00
00
78
7E
FE
FE
FE
FC
3C
ENDCHAR
STARTCHAR 0022
ENCODING 34
SWIDTH 369 0
DWIDTH 17 0
BBX 13 11 2 26
BITMAP
70E0
F9F0
F9F8
F9F8
F9F8
F8F0
78F0
70F0
70F0
7060
3060
ENDCHAR
STARTCHAR 0023
ENCODING 35
SWIDTH 673 0
DWIDTH 31 0
BBX 24 29 4 4
BITMAP
00703C
00F038
00F078
00F078
00E078
01E070
01E0F0
3FFFFF
3FFFFF
3FFFFF
3FFFFF
03C1E0
0381E0
0781C0
0783C0
0783C0
0703C0
0F0380
FFFFFC
FFFFFC
FFFFFC
FFFFFC
1E0F00
1E0F00
1C0F00
3C0E00
3C1E00
3C1E00
381E00
ENDCHAR
STARTCHAR 0024
ENCODING 36
SWIDTH 608 0
DWIDTH 28 0
BBX 24 45 2 -4
BITMAP
001800
001800
011800
07F830
0FFFF0
3FFFF8
7F99F8
7F18F8
7E18F8
FC1878
FC1838
F8181C
FC181C
FE1800
7F1800
7F9800
7FF800
3FF800
1FF800
07FC00
03FE00
01FF00
00FFC0
007FE0
003FF0
001FF8
001FFC
001BFC
0019FE
0018FE
C0187E
C0183F
E0183F
F0183E
F0183E
78183E
7C187E
7C18FC
7E1BFC
7FFFF8
7FFFE0
70FF80
001A00
001800
001800
ENDCHAR
STARTCHAR 0025
ENCODING 37
SWIDTH 956 0
DWIDTH 44 0
BBX 36 39 4 0
BITMAP
00F8000000
03FC000000
1FFE007800
1F3E007000
3E1F00F000
3E1F80E000
3C0F81E000
7C0FC1C000
7C0FC3C000
FC0F878000
F80F878000
F80F8F0000
FC1F0E0000
7C1F1E0000
3E1E1C0000
3E3E3C0000
1F7E380000
0FF8780000
07C0F00000
0000F00000
0001E00000
0001E1FC00
0003C3FF80
000387CF80
00078F87C0
00070F87C0
000F1F03C0
000E3F03E0
001E3F03E0
003C1F03F0
003C1F01F0
00781F01F0
00700F83F0
00F00F83E0
00E00787E0
01E007C7C0
01C007EF80
03C001FF00
0780003E00
ENDCHAR
STARTCHAR 0026
ENCODING 38
SWIDTH 673 0
DWIDTH 31 0
BBX 31 39 0 -2
BITMAP
003F0000
00FFE000
01F3F000
03C0F800
07807800
0F007C00
0F003C00
0E003C00
0F003C00
0F007C00
0F807C00
0780F800
07C1F800
03E3F000
01F7C000
00FF8000
007E0000
00FE0000
01FF0000
07CF81FE
0F87C1F8
1F07E0F0
3E03E0E0
3E01F1E0
7E00F9C0
FC007F80
FC003F80
FC003F00
FC001F00
FC000F80
FC001FC0
7E003FE0
7E0079F0
3F00F0F0
0FE3E078
07FFC03C
01FF001E
0000000E
00000004
ENDCHAR
STARTCHAR 0027
ENCODING 39
SWIDTH 195 0
DWIDTH 9 0
BBX 5 11 2 26
BITMAP
70
F8
F8
F8
F8
F8
78
70
70
70
30
ENDCHAR
STARTCHAR 0028
ENCODING 40
SWIDTH 434 0
DWIDTH 20 0
BBX 16 44 4 -7
BITMAP
0006
001F
003E
0078
00F0
01E0
03E0
07C0
0F80
0F80
1F00
3F00
3F00
7E00
7E00
7E00
7E00
7E00
FE00
FE00
FE00
FE00
FE00
FE00
FE00
FE00
7E00
7E00
7E00
7E00
7E00
3F00
3F00
1F00
0F80
0F80
07C0
03E0
01E0
00F0
0078
003E
001F
0006
ENDCHAR
STARTCHAR 0029
ENCODING 41
SWIDTH 434 0
DWIDTH 20 0
BBX 16 44 0 -7
BITMAP
6000
F800
7C00
1E00
0F00
0780
03C0
03E0
01F0
01F0
00F8
00FC
00FC
007E
007E
007E
007E
007F
007F
007F
007F
007F
007F
007F
007F
007F
007F
007E
007E
007E
007E
00FE
00FC
00F8
00F8
01F0
03E0
03C0
0780
0F00
0E00
3C00
F800
6000
ENDCHAR
STARTCHAR 002A
ENCODING 42
SWIDTH 434 0
DWIDTH 20 0
BBX 16 17 2 26
BITMAP
0180
03C0
07E0
03C0
03C0
03C0
718E
FFFF
FFFF
FFFF
718E
01C0
03C0
03C0
03E0
03C0
0180
ENDCHAR
STARTCHAR 002B
ENCODING 43
SWIDTH 608 0
DWIDTH 28 0
BBX 26 26 0 2
BITMAP
001E0000
001E0000
001E0000
001E0000
001E0000
001E0000
001E0000
001E0000
001E0000
001E0000
001E0000
FFFFFFC0
FFFFFFC0
FFFFFFC0
FFFFFFC0
001E0000
001E0000
001E0000
001E0000
001E0000
001E0000
001E0000
001E0000
001E0000
001E0000
001E0000
ENDCHAR
STARTCHAR 002C
ENCODING 44
SWIDTH 239 0
DWIDTH 11 0
BBX 9 13 0 -6
BITMAP
1E00
1F80
3F80
3F80
3F80
3F80
0F80
0700
0700
0E00
0E00
FC00
FC00
ENDCHAR
STARTCHAR 002D
ENCODING 45
SWIDTH 326 0
DWIDTH 15 0
BBX 11 4 2 11
BITMAP
FFE0
FFE0
FFE0
FFE0
ENDCHAR
STARTCHAR 002E
ENCODING 46
SWIDTH 195 0
DWIDTH 9 0
BBX 7 7 0 0
BITMAP
78
7E
FE
FE
FE
7C
1C
ENDCHAR
STARTCHAR 002F
ENCODING 47
SWIDTH 326 0
DWIDTH 15 0
BBX 13 39 0 -4
BITMAP
0078
0078
0070
00F0
00F0
00F0
00E0
01E0
01E0
01E0
01C0
03C0
03C0
03C0
0380
0780
0780
0780
0700
0700
0F00
0F00
0F00
0E00
1E00
1E00
1E00
1C00
3C00
3C00
3C00
3800
7800
7800
7800
7000
F000
F000
F000
ENDCHAR
STARTCHAR 0030
ENCODING 48
SWIDTH 717 0
DWIDTH 33 0
BBX 29 37 2 0
BITMAP
000F8000
003FE000
00F8F800
03E03E00
07C01F00
0FC01F80
1F800FC0
1F800FC0
3F0007E0
3F0007F0
7E0003F0
7E0003F0
7E0003F0
7E0003F0
7E0003F8
FE0003F8
FE0003F8
FE0003F8
FE0003F8
FE0003F8
FE0003F8
FE0003F8
7E0003F0
7E0003F0
7E0003F0
7E0003F0
7F0003F0
3F0007E0
3F8007E0
1F800FC0
0FC00FC0
0FC01F80
07E01F00
03F07E00
00FDF800
003FE000
000F8000
ENDCHAR
STARTCHAR 0031
ENCODING 49
SWIDTH 369 0
DWIDTH 17 0
BBX 15 37 0 0
BITMAP
0020
00E0
03E0
07E0
0FE0
1FE0
7FE0
FFE0
FFE0
03E0
03E0
03E0
03E0
03E0
03E0
03E0
03E0
03E0
03E0
03E0
03E0
03E0
03E0
03E0
03E0
03E0
03E0
03E0
03E0
03E0
03E0
03E0
03E0
07F0
0FF8
1FFC
3FFE
ENDCHAR
STARTCHAR 0032
ENCODING 50
SWIDTH 630 0
DWIDTH 29 0
BBX 26 39 2 -2
BITMAP
003FC000
00FFF800
03FFFC00
0FFFFE00
1FC0FF00
1F803F00
1F001F80
3E001FC0
3E000FC0
3E000FC0
1E000FC0
1E000F80
0E001F80
06001F80
06003F00
00003F00
00007F00
0000FE00
0001FC00
0003F800
0007F000
000FE000
001FC000
001F0000
003E0000
007C0000
00F80180
01F00180
03E00380
07C00780
0F000780
1E000F80
3C000F80
7F001F00
FFFE1F00
FFFFFF00
FFFFFF00
00000700
00000100
ENDCHAR
STARTCHAR 0033
ENCODING 51
SWIDTH 630 0
DWIDTH 29 0
BBX 26 37 2 0
BITMAP
00FF0000
03FFE000
07FFF800
0FFFF800
1E03FC00
1800FE00
38007E00
38007F00
30003E00
30003E00
30003E00
00007C00
00007C00
00007800
0000F000
0061E000
00FFC000
00FFF000
00F7FC00
0180FE00
00001F00
00000F80
00000FC0
00000FC0
18000FC0
38000FC0
78000FC0
F8001FC0
F8001F80
F8003F00
FC003F00
FC007E00
7E007C00
3F00F800
1FE3E000
03FF8000
003E0000
ENDCHAR
STARTCHAR 0034
ENCODING 52
SWIDTH 608 0
DWIDTH 28 0
BBX 26 36 0 1
BITMAP
00003C00
0001FC00
0003FC00
00077C00
00077C00
000E7C00
001E7C00
001C7C00
003C7C00
00787C00
00787C00
00F07C00
01E07C00
01E07C00
03C07C00
07C07C00
07807C00
0F807C00
1F007C00
1F007C00
3E007C00
7E007C00
7C007C00
FE007C00
7FF87C00
7FFFFFC0
3FFFFFC0
00007C00
00007C00
00007C00
00007C00
00007C00
00007C00
0000FE00
0001FF00
0007FF80
ENDCHAR
STARTCHAR 0035
ENCODING 53
SWIDTH 630 0
DWIDTH 29 0
BBX 26 37 2 0
BITMAP
07FFFF00
07FFFE00
07FFFE00
07FFFE00
0FFFFC00
0FFFFC00
0E000000
0E000000
0E000000
1C000000
1C000000
1C000000
1C000000
1CFF8000
3BFFE000
3F01F800
3E00FE00
38007F00
00003F00
00001F80
00000F80
00000F80
00000FC0
00000FC0
18000FC0
38000FC0
78000FC0
F8001FC0
F8001F80
F8003F00
FC003F00
FC007E00
7E007C00
3F00F800
1FE3E000
07FF8000
007E0000
ENDCHAR
STARTCHAR 0036
ENCODING 54
SWIDTH 630 0
DWIDTH 29 0
BBX 25 37 2 0
BITMAP
0000F000
001FFE00
00FE3F00
01E03F00
03C03F00
07C03F00
0F803E00
1F003C00
1F003C00
1E003800
3E003000
3E000000
7E000000
7C070000
7C3FC000
FCFFF000
FDFFFC00
FFC0FC00
FF807E00
FF003E00
FE003F00
FE001F00
FC001F80
FC000F80
F8000F80
F8000F80
FC000F80
FC001F00
FE001F00
7E003E00
3F007E00
3F80FE00
1FC1FC00
0FFFF800
03FFE000
01FF8000
007E0000
ENDCHAR
STARTCHAR 0037
ENCODING 55
SWIDTH 565 0
DWIDTH 26 0
BBX 24 37 2 0
BITMAP
FFFFFF
FFFFFF
FF000E
FC001E
F8003C
F80038
F80078
7800F0
3800E0
3801E0
1803C0
0003C0
000780
000700
000F00
001E00
001E00
003C00
003C00
007C00
007800
00F800
00F800
01F800
01F000
01F000
03F000
03F000
03F000
03F000
07F000
07F000
07E000
0FE000
0FE000
0FE000
0FE000
ENDCHAR
STARTCHAR 0038
ENCODING 56
SWIDTH 630 0
DWIDTH 29 0
BBX 25 37 2 0
BITMAP
007F0000
03FFE000
07E3F800
0F80FC00
1F807E00
3F007F00
3F003F00
3E003F00
3E003F00
3E003F00
3E003E00
1F003E00
1F807C00
07C1F800
00EFF000
01FFC000
0FFF0000
1FF9E000
1FE0FC00
3F807C00
3E003E00
3E001E00
7C001F00
7C000F00
F8000F80
F8000F80
F8000F80
78000F80
7C001F00
3E003F00
3F007E00
1F80FE00
1FE3FC00
0FFFF800
03FFE000
00FF8000
003E0000
ENDCHAR
STARTCHAR 0039
ENCODING 57
SWIDTH 630 0
DWIDTH 29 0
BBX 26 37 2 0
BITMAP
003F8000
00FFE000
03FFF000
0FFFFC00
1FC1FC00
1F80FE00
3F007F00
3E003F00
3E001F80
7C001FC0
7C000FC0
F8000FC0
F8000FC0
FC000FC0
7C001FC0
7E001FC0
3E003FC0
3F007FC0
1F80FFC0
1FC1EFC0
0FFFCFC0
03FF9F80
00FE1F80
00301F00
00001F00
00001F00
06003E00
0E003E00
0E003C00
1E007C00
3E00F800
3E00F000
3E01E000
3E07C000
3E7F8000
1FFC0000
03800000
ENDCHAR
STARTCHAR 003A
ENCODING 58
SWIDTH 195 0
DWIDTH 9 0
BBX 7 24 0 0
BITMAP
38
7E
7E
FE
FE
FC
3C
00
00
00
00
00
00
00
00
00
00
78
7E
FE
FE
FE
7C
1C
ENDCHAR
STARTCHAR 003B
ENCODING 59
SWIDTH 239 0
DWIDTH 11 0
BBX 9 30 0 -6
BITMAP
1C00
1F00
3F80
3F80
3F80
3F00
0F00
0000
0000
0000
0000
0000
0000
0000
0000
0000
0000
1E00
1F80
3F80
3F80
3F80
3F80
0F80
0700
0700
0E00
0E00
FC00
FC00
ENDCHAR
STARTCHAR 003C
ENCODING 60
SWIDTH 478 0
DWIDTH 22 0
BBX 16 26 4 2
BITMAP
0002
000E
001F
003F
00FE
01F8
03F0
0FC0
1F80
3E00
F800
F000
C000
E000
F000
7C00
3E00
1F80
07E0
03F0
01FC
007E
003F
001F
0006
0002
ENDCHAR
STARTCHAR 003D
ENCODING 61
SWIDTH 565 0
DWIDTH 26 0
BBX 22 11 2 9
BITMAP
FFFFFC
FFFFFC
FFFFFC
000000
000000
000000
000000
FFFFFC
FFFFFC
FFFFFC
FFFFFC
ENDCHAR
STARTCHAR 003E
ENCODING 62
SWIDTH 478 0
DWIDTH 22 0
BBX 16 25 2 2
BITMAP
4000
7000
F800
FC00
7F00
1F80
0FC0
03F0
00F8
007C
001F
000F
0003
0003
000F
003E
007C
01F8
03E0
0FC0
3F80
7E00
FC00
7800
6000
ENDCHAR
STARTCHAR 003F
ENCODING 63
SWIDTH 521 0
DWIDTH 24 0
BBX 22 37 0 0
BITMAP
01FE00
0FFFC0
1F87E0
3E01F0
3E01F0
7C00F8
FC00FC
FC007C
FC007C
FC007C
7C007C
3C00FC
1C00F8
0001F0
0001F0
0007E0
000FC0
003F80
00FE00
01F800
03E000
03C000
038000
01C000
00C000
006000
000000
000000
000000
000000
007800
00FE00
00FE00
01FE00
01FC00
00FC00
003800
ENDCHAR
STARTCHAR 0040
ENCODING 64
SWIDTH 847 0
DWIDTH 39 0
BBX 39 38 0 -7
BITMAP
001FFFE000
007F83F800
01FE00FE00
07F8003F80
07E0000FC0
0F800003E0
1F000003E0
1F00E079F0
3E03FEF8F8
3C07FFF8F8
7C1FFFF878
7C1FC0F878
7C3F80F87C
7C3F00F87C
7C3F01F87C
FC7F01F07C
FC7F01F07C
FC7E01F07E
FC7E01F07C
FC7E01F07C
FC7E01F078
7C7E03F078
7C7F03F070
7C7F03F0F0
7C3F03F9E0
7C1F87F9E0
3C1FE67BC0
3E0FFE7F80
1F07FC3F00
1F03F01C00
0F83001000
07C0000000
07F0000000
01F8000000
00FE000000
003F800000
001FF00000
0001E00000
ENDCHAR
STARTCHAR 0041
ENCODING 65
SWIDTH 760 0
DWIDTH 35 0
BBX 34 38 0 1
BITMAP
0000600000
0000E00000
0001F00000
0001F00000
0001F00000
0003F80000
0003F80000
0003F80000
0007FC0000
00077C0000
00077E0000
000F3E0000
000E3E0000
001E3F0000
001C1F0000
001C1F0000
003C1F8000
00380F8000
00380F8000
00780FC000
007007C000
00F007E000
00F003E000
00E003E000
01E003F000
01FFFFF000
01FFFFF000
03C001F800
038000F800
078000F800
078000FC00
0700007C00
0F00007E00
0F00007E00
1F00003E00
3F80007F00
7FC0007F80
FFE000FFC0
ENDCHAR
STARTCHAR 0042
ENCODING 66
SWIDTH 760 0
DWIDTH 35 0
BBX 31 37 2 0
BITMAP
FFFFF000
3FFFFF80
1FC03FC0
0F800FE0
0F800FE0
0F8007F0
0F8007F0
0F8007F8
0F8003F8
0F8003F8
0F8007F0
0F8007F0
0F8007E0
0F800FC0
0F800FC0
0F80FF00
0FFFFC00
0FFFFF80
0F83FFF0
0F803FF0
0F800FF8
0F8007F8
0F8003FC
0F8003FC
0F8001FE
0F8000FE
0F8001FE
0F8001FC
0F8001FC
0F8003F8
0F8003F8
0F8007F0
0F800FF0
1FC03FC0
3FE07F00
7FFFFC00
FFFFF000
ENDCHAR
STARTCHAR 0043
ENCODING 67
SWIDTH 760 0
DWIDTH 35 0
BBX 31 37 2 0
BITMAP
000FFE00
003FFF80
00FE07E0
03FC03F8
07F001FC
0FE000FC
1FC000FE
1FC000FE
3F8000FC
3F0000F8
7F0000F0
7E000000
7E000000
7E000000
7E000000
FE000000
FE000000
FE000000
FE000000
FE000000
FE000000
FE000000
7E000000
7E000000
7E000000
7E000000
7F000004
3F00000E
3F80000C
1FC0001C
0FC00038
0FE00078
07F800F0
03FE01E0
00FF8F80
003FFF00
000FFC00
ENDCHAR
STARTCHAR 0044
ENCODING 68
SWIDTH 804 0
DWIDTH 37 0
BBX 33 37 2 0
BITMAP
FFFFC00000
7FFFF00000
3FC03E0000
1F800F8000
0F8007C000
0F8003E000
0F8001F000
0F8000F800
0F8000FC00
0F80007E00
0F80007E00
0F80003F00
0F80003F00
0F80003F00
0F80003F00
0F80003F00
0F80003F80
0F80003F80
0F80003F80
0F80003F80
0F80003F80
0F80003F00
0F80003F00
0F80003F00
0F80003F00
0F80003F00
0F80003E00
0F80003E00
0F80007E00
0F8000FC00
0F8000F800
0F8001F800
0F8003F000
1F8007E000
3FC01F8000
7FFFFE0000
FFFFF80000
ENDCHAR
STARTCHAR 0045
ENCODING 69
SWIDTH 717 0
DWIDTH 33 0
BBX 29 40 2 -1
BITMAP
000001C0
00001FC0
FFFFFFC0
3FE00FC0
1FC007C0
0F8003E0
0F8003E0
0F8001E0
0F8000E0
0F800060
0F800060
0F800000
0F800000
0F800000
0F800000
0F800400
0F800C00
0FC01C00
0FFFFC00
0FFFFC00
0FC01C00
0F800C00
0F800400
0F800000
0F800000
0F800000
0F800000
0F800018
0F800018
0F800038
0F800078
0F800078
0F8000F8
0F8000F0
0F8001F0
1FC003F0
3FFFFFF0
7FFFFFF0
FFFFFFF0
00000030
ENDCHAR
STARTCHAR 0046
ENCODING 70
SWIDTH 673 0
DWIDTH 31 0
BBX 27 38 2 1
BITMAP
000001C0
00001FC0
FFFFFFC0
3FE00FC0
1FC007C0
0F8003E0
0F8003E0
0F8001E0
0F8000E0
0F800060
0F800060
0F800000
0F800000
0F800000
0F800000
0F800400
0F800C00
0FC01C00
0FFFFC00
0FFFFC00
0FC01C00
0F800C00
0F800400
0F800000
0F800000
0F800000
0F800000
0F800000
0F800000
0F800000
0F800000
0F800000
0F800000
0F800000
0F800000
1FC00000
3FE00000
FFF00000
ENDCHAR
STARTCHAR 0047
ENCODING 71
SWIDTH 869 0
DWIDTH 40 0
BBX 34 37 4 0
BITMAP
001FFE0000
007FFF8000
01FE07E000
07FC03F800
07F001FC00
0FE000FC00
1FC000FE00
1F8000FE00
3F8000FC00
7F0000F800
7E0000F000
7E00000000
7E00000000
7E00000000
FE00000000
FE00000000
FE00000000
FE00000000
FE00000000
FE00000000
FE0003FFC0
FE0001FF80
FE0000FF00
7E00007E00
7E00007E00
7E00007E00
7F00007E00
7F00007E00
3F80007E00
1FC0007E00
1FC0007E00
0FE0007E00
07F800FE00
03FE03FC00
00FF9FF000
003FFFC000
000FFE0000
ENDCHAR
STARTCHAR 0048
ENCODING 72
SWIDTH 913 0
DWIDTH 42 0
BBX 38 37 2 0
BITMAP
FFF0003FFC
7FE0001FF8
3FC0000FF0
1F800007E0
0F800007E0
0F800007E0
0F800007E0
0F800007E0
0F800007E0
0F800007E0
0F800007E0
0F800007E0
0F800007E0
0F800007E0
0F800007E0
0FC0000FE0
0FE0001FE0
0FFFFFFFE0
0FE0000FE0
0FC00007E0
0F800007E0
0F800007E0
0F800007E0
0F800007E0
0F800007E0
0F800007E0
0F800007E0
0F800007E0
0F800007E0
0F800007E0
0F800007E0
0F800007E0
0F800007E0
1F800007E0
3FC0000FF0
7FE0001FF8
FFF0003FFC
ENDCHAR
STARTCHAR 0049
ENCODING 73
SWIDTH 369 0
DWIDTH 17 0
BBX 12 37 2 0
BITMAP
FFF0
7FE0
3FC0
1F80
0F80
0F80
0F80
0F80
0F80
0F80
0F80
0F80
0F80
0F80
0F80
0F80
0F80
0F80
0F80
0F80
0F80
0F80
0F80
0F80
0F80
0F80
0F80
0F80
0F80
0F80
0F80
0F80
0F80
1F80
3FC0
7FE0
FFF0
ENDCHAR
STARTCHAR 004A
ENCODING 74
SWIDTH 434 0
DWIDTH 20 0
BBX 16 42 2 -5
BITMAP
0FFF
07FE
03FC
01F8
01F8
01F8
01F8
01F8
01F8
01F8
01F8
01F8
01F8
01F8
01F8
01F8
01F8
01F8
01F8
01F8
01F8
01F8
01F8
01F8
01F8
01F8
01F8
01F8
01F8
01F8
01F8
01F8
01F0
03E0
03E0
07C0
0F80
1F00
3E00
7800
F000
6000
ENDCHAR
STARTCHAR 004B
ENCODING 75
SWIDTH 695 0
DWIDTH 32 0
BBX 31 39 2 -2
BITMAP
FFF01FF8
7FE00FF0
3FC007E0
1F8003C0
0F800780
0F800F00
0F800E00
0F801C00
0F803C00
0F807800
0F80F000
0F81E000
0F83C000
0F878000
0F870000
0F8E0000
0F9E0000
0FBC0000
0FF80000
0FFF0000
0FFFF000
0FC7F800
0F81F800
0F81FC00
0F80FE00
0F807E00
0F807F00
0F803F80
0F801F80
0F801FC0
0F800FE0
0F8007E0
0F8007F0
1F8003F8
3FC001F8
7FE0007C
FFF0003E
0000001E
00000004
ENDCHAR
STARTCHAR 004C
ENCODING 76
SWIDTH 673 0
DWIDTH 31 0
BBX 27 39 2 -2
BITMAP
FFF00000
7FE00000
3FC00000
1F800000
0F800000
0F800000
0F800000
0F800000
0F800000
0F800000
0F800000
0F800000
0F800000
0F800000
0F800000
0F800000
0F800000
0F800000
0F800000
0F800000
0F800000
0F800000
0F800000
0F800000
0F800000
0F800000
0F800060
0F800060
0F8000E0
0F8001E0
0F8001E0
0F8003E0
0F8003C0
1F8007C0
3FC00FC0
7FFFFFC0
FFFFFFC0
000001C0
00000040
ENDCHAR
STARTCHAR 004D
ENCODING 77
SWIDTH 1000 0
DWIDTH 46 0
BBX 42 38 2 -1
BITMAP
FFE000007FC0
3FF00000FF00
1FF00000FE00
0FF00001FC00
0FF80001FC00
0FF80001FC00
0FFC0003FC00
0FFC0003FC00
0EFC0007FC00
0EFE0007FC00
0E7E00077C00
0E7F000F7C00
0E7F000F7C00
0E3F001E7C00
0E3F801E7C00
0E1F801C7C00
0E1FC03C7C00
0E1FC03C7C00
0E0FC0787C00
0E0FE0787C00
0E07E0707C00
0E07F0F07C00
0E07F0F07C00
0E03F1E07C00
0E03F9E07C00
0E01F9C07C00
0E01FFC07C00
0E00FFC07C00
0E00FF807C00
0E00FF807C00
0E007F007C00
0E007F007C00
0E003F007C00
1F003E00FE00
3F803E01FF00
7FC01C03FF80
FFE01C07FFC0
000008000000
ENDCHAR
STARTCHAR 004E
ENCODING 78
SWIDTH 847 0
DWIDTH 39 0
BBX 34 39 2 -2
BITMAP
FFE000FFC0
7FF0007F80
3FF0003F00
1FF8001E00
0FFC001E00
0FFC001E00
0EFE001E00
0EFE001E00
0E7F001E00
0E3F801E00
0E3F801E00
0E1FC01E00
0E1FC01E00
0E0FE01E00
0E07F01E00
0E07F01E00
0E03F81E00
0E03F81E00
0E01FC1E00
0E00FE1E00
0E00FE1E00
0E007F1E00
0E003F1E00
0E003F9E00
0E001FDE00
0E001FDE00
0E000FFE00
0E0007FE00
0E0007FE00
0E0003FE00
0E0003FE00
0E0001FE00
0E0000FE00
1F0000FE00
3F80007E00
7FC0007E00
FFE0003C00
0000001800
0000001000
ENDCHAR
STARTCHAR 004F
ENCODING 79
SWIDTH 869 0
DWIDTH 40 0
BBX 37 37 2 0
BITMAP
000FFF8000
003FFFE000
00FE07F800
03FC01FE00
07F000FF00
0FE0003F00
1FC0003F80
1FC0001FC0
3F80000FC0
3F00000FE0
7F000007E0
7E000007E0
7E000007E0
7E000007F0
7E000007F0
FE000007F0
FE000007F0
FE000007F0
FE000007F8
FE000007F0
FE000007F0
FE000007F0
7E000007F0
7E000007F0
7E000007E0
7E000007E0
7F000007E0
3F00000FE0
3F80001FC0
1FC0001FC0
0FC0003F80
0FE0007F00
07F800FF00
03FC03FC00
00FF07F000
003FFFC000
000FFF0000
ENDCHAR
STARTCHAR 0050
ENCODING 80
SWIDTH 695 0
DWIDTH 32 0
BBX 29 37 2 0
BITMAP
FFFFE000
7FFFFF00
3FC03FC0
1F800FC0
0F800FE0
0F8007E0
0F8007F0
0F8007F0
0F8003F8
0F8003F8
0F8003F8
0F8007F0
0F8007F0
0F8007F0
0F8007E0
0F800FE0
0F800FC0
0F807FC0
0FFFFF80
0FFFFE00
0FBFF000
0F83C000
0F800000
0F800000
0F800000
0F800000
0F800000
0F800000
0F800000
0F800000
0F800000
0F800000
0F800000
1F800000
3FC00000
7FE00000
FFF00000
ENDCHAR
STARTCHAR 0051
ENCODING 81
SWIDTH 869 0
DWIDTH 40 0
BBX 40 46 2 -9
BITMAP
000FFF0000
003FFFC000
00FF07F000
03FC03FC00
07F800FF00
0FE0007F00
0FC0003F80
1FC0001FC0
3F80001FC0
3F00000FE0
7F000007E0
7E000007E0
7E000007E0
7E000007F0
7E000007F0
FE000007F0
FE000007F0
FE000007F0
FE000007F8
FE000007F0
FE000007F0
FE000007F0
7E000007F0
7E000007F0
7E000007E0
7E000007E0
7F000007E0
3F00000FE0
3F80000FC0
1FC0001FC0
1FC0003F80
0FE0003F00
07F000FF00
03FC01FE00
00FE07F800
003FFFE000
000FFF8000
00000F8000
000007C000
000007F000
000003F800
000001FF00
000000FFE0
0000007FFF
0000003FFF
00000003F0
ENDCHAR
STARTCHAR 0052
ENCODING 82
SWIDTH 739 0
DWIDTH 34 0
BBX 31 39 2 -2
BITMAP
FFFFC000
7FFFFE00
3FC07FC0
1F801FC0
0F800FE0
0F8007E0
0F8007F0
0F8007F0
0F8003F8
0F8003F8
0F8003F8
0F8007F0
0F8007F0
0F8007E0
0F800FE0
0F801FC0
0F807FC0
0FFFF800
0FFE0000
0F9F8000
0F87F000
0F83F800
0F81F800
0F81FC00
0F80FE00
0F807E00
0F807F00
0F803F80
0F801F80
0F801FC0
0F800FE0
0F8007E0
0F8007F0
1F8003F8
3FC001F8
7FE0007C
FFF0003E
0000001E
00000004
ENDCHAR
STARTCHAR 0053
ENCODING 83
SWIDTH 608 0
DWIDTH 28 0
BBX 24 40 2 -1
BITMAP
03C010
07FE70
1FFFF8
3FFFF8
7F01F8
7E00F8
7E0078
FC0078
FC003C
FC001C
FE000C
7F0000
7F8000
7FC000
3FE000
1FF000
0FF800
07FC00
03FF00
01FF80
00FFC0
003FE0
001FF0
000FF8
0007FC
0003FC
0001FE
0000FE
C0007E
E0003F
E0003F
F0003E
F8003E
78003E
7C007E
7C01FC
7E07FC
7FFFF0
7FFFC0
303F00
ENDCHAR
STARTCHAR 0054
ENCODING 84
SWIDTH 673 0
DWIDTH 31 0
BBX 31 39 0 0
BITMAP
3000001C
3F0001FC
7FFFFFFC
7FFFFFFC
7F87C3FC
7C07C03C
7807C03E
7007C01E
F007C00E
E007C00E
C007C006
0007C000
0007C000
0007C000
0007C000
0007C000
0007C000
0007C000
0007C000
0007C000
0007C000
0007C000
0007C000
0007C000
0007C000
0007C000
0007C000
0007C000
0007C000
0007C000
0007C000
0007C000
0007C000
0007C000
0007C000
000FE000
001FF000
003FF800
007FFC00
ENDCHAR
STARTCHAR 0055
ENCODING 85
SWIDTH 847 0
DWIDTH 39 0
BBX 34 37 2 0
BITMAP
FFF000FFC0
7FE0007F80
3FC0003F00
1F80001E00
0F80001E00
0F80001E00
0F80001E00
0F80001E00
0F80001E00
0F80001E00
0F80001E00
0F80001E00
0F80001E00
0F80001E00
0F80001E00
0F80001E00
0F80001E00
0F80001E00
0F80001E00
0F80001E00
0F80001E00
0F80001E00
0F80001E00
0F80001E00
0F80001E00
0F80001E00
0FC0001E00
0FC0001E00
0FC0001C00
07C0003C00
07E0003C00
03E0007800
01F800F000
00FC01E000
007F07C000
001FFF8000
0003FE0000
ENDCHAR
STARTCHAR 0056
ENCODING 86
SWIDTH 760 0
DWIDTH 35 0
BBX 34 39 0 -2
BITMAP
FFF000FFC0
7FE0007F80
3FC0003F00
1F80001E00
0FC0001E00
0FC0001E00
07C0001C00
07E0003C00
07E0003800
03E0007800
03F0007800
01F0007000
01F800F000
01F800E000
00F801E000
00FC01E000
00FC01C000
007E03C000
007E03C000
007E078000
003F078000
003F070000
001F0F0000
001F8F0000
001F8E0000
000FDE0000
000FDC0000
000FFC0000
0007FC0000
0007F80000
0003F80000
0003F00000
0003F00000
0001F00000
0001E00000
0001E00000
0000E00000
0000C00000
0000800000
ENDCHAR
STARTCHAR 0057
ENCODING 87
SWIDTH 1043 0
DWIDTH 48 0
BBX 47 38 0 -2
BITMAP
FFF0000007FE
7FE0000003FC
3FC0003001F8
1F8001F000F0
0F8003F000F0
0FC003F000F0
07C007F800E0
07C007F801E0
07E007F801E0
03E007F801C0
03E00FF803C0
03F00FFC03C0
03F00FFC0380
01F00FFC0780
01F80EFC0780
01F81E7E0700
00F81E7E0700
00F81E7E0F00
00FC1C3E0E00
007C3C3E0E00
007C3C3F1E00
007E383F1C00
003E381F1C00
003E781F3C00
003F701F3800
001F700FB800
001F700FF800
001FE00FF000
000FE00FF000
000FE007F000
000FE007E000
000FC007E000
0007C003E000
0007C003C000
00078003C000
00038003C000
000380018000
000300010000
ENDCHAR
STARTCHAR 0058
ENCODING 88
SWIDTH 847 0
DWIDTH 39 0
BBX 34 37 2 0
BITMAP
FFFC03FFC0
7FF801FF80
3FF000FF00
1FE0007E00
0FE0007E00
07F0007C00
03F000F800
03F801F000
01F801F000
00F803E000
007C03C000
007C078000
003E078000
001E0F0000
000F1E0000
000F1C0000
00073C0000
0003F80000
0003F00000
0003F80000
00073C0000
000F1C0000
001E1E0000
001E0F0000
003C0F8000
00780F8000
00F807C000
00F007E000
01F003F000
03E003F000
07E001F800
07C001FC00
0F8001FE00
1F8001FE00
3FC003FF00
7FE007FF80
FFF00FFFC0
ENDCHAR
STARTCHAR 0059
ENCODING 89
SWIDTH 673 0
DWIDTH 31 0
BBX 31 37 0 0
BITMAP
FFF007FE
7FE003FC
3FC001F8
1F8000F0
0FC000E0
07C001E0
07E001C0
03E00380
03F00380
01F80700
01F80700
00FC0600
007C0E00
007E0C00
003E1C00
003F1800
001FB000
001FF000
000FE000
000FE000
0007C000
0007C000
0007C000
0007C000
0007C000
0007C000
0007C000
0007C000
0007C000
0007C000
0007C000
0007C000
0007C000
000FE000
001FF000
003FF800
007FFC00
ENDCHAR
STARTCHAR 005A
ENCODING 90
SWIDTH 760 0
DWIDTH 35 0
BBX 31 40 2 -1
BITMAP
1C000000
1FC00000
1FFFFFFE
1FFFFFFC
1F0007F8
1F0007F0
3E000FE0
3C001FE0
38001FC0
38003F80
30007F00
00007F00
0000FE00
0001FC00
0001F800
0003F000
0007F000
0007E000
000FC000
001F8000
001F8000
003F0000
007E0000
007C0000
00F80000
01F80000
01F00000
03E00000
07C00018
07C00038
0F800038
1F000078
1E0000F8
3C0000F0
7C0001F0
7FE001F0
FFFFF3F0
FFFFFFF0
FFFFFFF0
00000030
ENDCHAR
STARTCHAR 005B
ENCODING 91
SWIDTH 282 0
DWIDTH 13 0
BBX 11 44 2 -7
BITMAP
FFE0
FFE0
FF00
F000
F000
F000
F000
F000
F000
F000
F000
F000
F000
F000
F000
F000
F000
F000
F000
F000
F000
F000
F000
F000
F000
F000
F000
F000
F000
F000
F000
F000
F000
F000
F000
F000
F000
F000
F000
F000
F000
FF00
FFE0
FFE0
ENDCHAR
STARTCHAR 005C
ENCODING 92
SWIDTH 326 0
DWIDTH 15 0
BBX 13 39 0 -4
BITMAP
F000
F000
7000
7800
7800
7800
3800
3800
3C00
3C00
1C00
1C00
1E00
1E00
1E00
0E00
0F00
0F00
0F00
0700
0780
0780
0780
0380
03C0
03C0
03C0
01C0
01C0
01E0
01E0
01E0
00E0
00F0
00F0
00F0
0070
0078
0078
ENDCHAR
STARTCHAR 005D
ENCODING 93
SWIDTH 282 0
DWIDTH 13 0
BBX 11 44 0 -7
BITMAP
FFE0
FFE0
1FE0
01E0
01E0
01E0
01E0
01E0
01E0
01E0
01E0
01E0
01E0
01E0
01E0
01E0
01E0
01E0
01E0
01E0
01E0
01E0
01E0
01E0
01E0
01E0
01E0
01E0
01E0
01E0
01E0
01E0
01E0
01E0
01E0
01E0
01E0
01E0
01E0
01E0
01E0
1FE0
FFE0
FFE0
ENDCHAR
STARTCHAR 005E
ENCODING 94
SWIDTH 826 0
DWIDTH 38 0
BBX 15 8 7 24
BITMAP
03C0
07C0
0FE0
1FF0
1EF8
3838
701C
C006
ENDCHAR
STARTCHAR 005F
ENCODING 95
SWIDTH 804 0
DWIDTH 37 0
BBX 29 2 4 -6
BITMAP
FFFFFFF8
FFFFFFF8
ENDCHAR
STARTCHAR 0060
ENCODING 96
SWIDTH 847 0
DWIDTH 39 0
BBX 11 7 7 30
BITMAP
3800
7C00
FE00
FF00
3F80
07C0
01E0
ENDCHAR
STARTCHAR 0061
ENCODING 97
SWIDTH 543 0
DWIDTH 25 0
BBX 24 26 1 0
BITMAP
003800
00FF80
03FFE0
0FFFE0
0F83F0
0701F0
0301F0
0001F0
0001F0
0007F0
00FFF0
07FDF0
1FF1F0
3FC1F0
7F01F0
7E01F0
7C01F0
FC01F0
FC01F0
7C03F0
7E03F1
3F07F7
1F0F7E
1FBC7C
07F838
01E030
ENDCHAR
STARTCHAR 0062
ENCODING 98
SWIDTH 630 0
DWIDTH 29 0
BBX 26 38 2 1
BITMAP
03800000
0F800000
7F800000
FF800000
1F800000
0F800000
0F800000
0F800000
0F800000
0F800000
0F800000
0F800000
0F8F8000
0FBFF000
0FFDFC00
0FF07E00
0FE03E00
0FC01F00
0FC01F00
0F801F80
0F801F80
0F801FC0
0F800FC0
0F800FC0
0F800FC0
0F800FC0
0F800FC0
0F800FC0
0F801FC0
0F801F80
0F801F80
0F801F00
1FC01F00
7FC03E00
FFE03E00
3EF8FC00
1C3FF800
040FC000
ENDCHAR
STARTCHAR 0063
ENCODING 99
SWIDTH 521 0
DWIDTH 24 0
BBX 22 26 2 0
BITMAP
00FC00
07FF80
1FCFE0
1F03E0
3E01F0
3E01F0
7E01E0
7C01C0
FC0180
FC0000
FC0000
F80000
F80000
F80000
F80000
FC0000
FC0000
FC0000
7C0000
7E0030
3E007C
3E0078
1F00F0
1FE3E0
07FF80
00FE00
ENDCHAR
STARTCHAR 0064
ENCODING 100
SWIDTH 630 0
DWIDTH 29 0
BBX 27 38 2 1
BITMAP
00001C00
00007C00
0003FC00
0007FC00
0000FC00
0000FC00
0000FC00
0000FC00
0000FC00
0000FC00
0000FC00
0000FC00
00F8FC00
07FEFC00
1FCFFC00
1F03FC00
3E01FC00
3E01FC00
7E00FC00
7C00FC00
FC00FC00
FC00FC00
FC00FC00
FC00FC00
FC00FC00
F800FC00
FC00FC00
FC00FC00
FC00FC00
FC00FC00
7C00FC00
7E00FC00
3E01FC00
3E01FC60
1F03FFE0
1FCF9FC0
0FFF1F80
01FC0F00
ENDCHAR
STARTCHAR 0065
ENCODING 101
SWIDTH 543 0
DWIDTH 25 0
BBX 22 26 2 0
BITMAP
00FC00
07FF80
1FCFE0
1F03E0
3E01F0
3E01F8
7E01F8
7C01FC
FC01F8
FC03F8
FC1FF0
FC7FC0
FBFC00
FFC000
FC0000
FC0000
FC0000
FC0000
7C0000
7E0018
3E003C
3E0078
1F00F0
1FE3E0
07FF80
00FE00
ENDCHAR
STARTCHAR 0066
ENCODING 102
SWIDTH 369 0
DWIDTH 17 0
BBX 18 39 1 0
BITMAP
001000
007F00
01EFC0
03C3C0
07C3C0
0783C0
0F87C0
0F87C0
0F83C0
0F8080
0F8000
0F8000
0F8000
0F8000
0F8000
3FFE00
3FFE00
3FF000
1FC000
0F8000
0F8000
0F8000
0F8000
0F8000
0F8000
0F8000
0F8000
0F8000
0F8000
0F8000
0F8000
0F8000
0F8000
0F8000
0F8000
1F8000
3FC000
7FE000
FFF000
ENDCHAR
STARTCHAR 0067
ENCODING 103
SWIDTH 608 0
DWIDTH 28 0
BBX 25 40 2 -15
BITMAP
03FF0700
1FFFFF00
1F87FF80
3E01F780
7E01F980
7C01F800
FC00FC00
FC00FC00
F800FC00
FC00FC00
FC00FC00
FC01F800
7E01F800
3E01F000
3F03F000
1FCFC000
07FF8000
00FE0000
00F80000
03C00000
07E00000
0FF80000
07FF0000
01FFC000
03FFE000
0FBFF000
1F07F800
3E01FC00
FC00FE00
F8007F00
F8003F00
F8003F00
F8003F00
FC003E00
7E003E00
3F007C00
3FC0F800
1FF9F800
07FFE000
007F0000
ENDCHAR
STARTCHAR 0068
ENCODING 104
SWIDTH 630 0
DWIDTH 29 0
BBX 27 38 1 1
BITMAP
03800000
0F800000
7F800000
FF800000
1F800000
0F800000
0F800000
0F800000
0F800000
0F800000
0F800000
0F800000
0F830000
0F8FF000
0F9FFC00
0FBFFE00
0FB07E00
0FF03F00
0FE03F00
0FC03F00
0FC03F00
0F803F00
0F803F00
0F803F00
0F803F00
0F803F00
0F803F00
0F803F00
0F803F00
0F803F00
0F803F00
0F803F00
0F803F00
0F803F00
1F803F00
3FC07F80
7FE0FFC0
FFF1FFE0
ENDCHAR
STARTCHAR 0069
ENCODING 105
SWIDTH 369 0
DWIDTH 17 0
BBX 12 37 2 0
BITMAP
1C00
1F00
3F80
3F80
3F80
3F00
0F00
0000
0000
0000
0000
0080
0780
1F80
FF80
7F80
1F80
0F80
0F80
0F80
0F80
0F80
0F80
0F80
0F80
0F80
0F80
0F80
0F80
0F80
0F80
0F80
0F80
1F80
3FC0
7FE0
FFF0
ENDCHAR
STARTCHAR 006A
ENCODING 106
SWIDTH 326 0
DWIDTH 15 0
BBX 13 52 -2 -15
BITMAP
0180
01E0
03F8
03F8
03F8
03F0
01F0
0060
0000
0000
0000
0000
0018
00F8
03F8
0FF8
03F8
00F8
00F8
00F8
00F8
00F8
00F8
00F8
00F8
00F8
00F8
00F8
00F8
00F8
00F8
00F8
00F8
00F8
00F8
00F8
00F8
00F8
00F8
01F8
01F0
01F0
03E0
03E0
03C0
07C0
0F80
1F00
3E00
7800
F000
6000
ENDCHAR
STARTCHAR 006B
ENCODING 107
SWIDTH 565 0
DWIDTH 26 0
BBX 25 40 1 -1
BITMAP
03800000
0F800000
7F800000
FF800000
1F800000
0F800000
0F800000
0F800000
0F800000
0F800000
0F800000
0F800000
0F800000
0F800000
0F87FE00
0F83FC00
0F81F800
0F80F000
0F80E000
0F81C000
0F838000
0F870000
0F8E0000
0F9E0000
0FBF0000
0FFF0000
0FFF8000
0FDFC000
0F8FE000
0F87E000
0F83F000
0F81F800
0F81FC00
0F80FC00
1F807E00
3FC03F00
7FE01F80
FFF00F80
00000380
00000100
ENDCHAR
STARTCHAR 006C
ENCODING 108
SWIDTH 326 0
DWIDTH 15 0
BBX 12 38 1 1
BITMAP
0380
0F80
7F80
FF80
1F80
0F80
0F80
0F80
0F80
0F80
0F80
0F80
0F80
0F80
0F80
0F80
0F80
0F80
0F80
0F80
0F80
0F80
0F80
0F80
0F80
0F80
0F80
0F80
0F80
0F80
0F80
0F80
0F80
0F80
1F80
3FC0
7FE0
FFF0
ENDCHAR
STARTCHAR 006D
ENCODING 109
SWIDTH 1043 0
DWIDTH 48 0
BBX 46 26 2 0
BITMAP
0081C000E000
0787FC03FE00
1F0FFF07FF80
FF1FFF8FFF80
7F3C1F9C0FC0
1F780FF807C0
0EF00FF007C0
0FE00FE007C0
0FC00FC007C0
0F800FC007C0
0F800FC007C0
0F800FC007C0
0F800FC007C0
0F800FC007C0
0F800FC007C0
0F800FC007C0
0F800FC007C0
0F800FC007C0
0F800FC007C0
0F800FC007C0
0F800FC007C0
0F800FC007C0
1F800FC00FE0
3FC01FE01FF0
7FE03FF03FF8
FFF07FF87FFC
ENDCHAR
STARTCHAR 006E
ENCODING 110
SWIDTH 673 0
DWIDTH 31 0
BBX 29 26 2 0
BITMAP
0081C000
0787FC00
1F0FFF00
FF1FFF80
7F3C1F80
1F780FC0
0EF00FC0
0FE00FC0
0FC00FC0
0F800FC0
0F800FC0
0F800FC0
0F800FC0
0F800FC0
0F800FC0
0F800FC0
0F800FC0
0F800FC0
0F800FC0
0F800FC0
0F800FC0
0F800FC0
1F800FC0
3FC01FE0
7FE03FF0
FFF07FF8
ENDCHAR
STARTCHAR 006F
ENCODING 111
SWIDTH 565 0
DWIDTH 26 0
BBX 22 26 2 0
BITMAP
00FC00
07FF80
1FCFE0
1F03E0
3E01F0
3E01F0
7E01F8
7C01F8
FC00FC
FC00FC
FC00FC
FC00FC
F800FC
F800FC
FC00FC
FC00FC
FC00FC
FC01F8
7C01F8
7E01F0
3E01F0
3E01E0
1F03E0
1FCFC0
07FF80
00FC00
ENDCHAR
STARTCHAR 0070
ENCODING 112
SWIDTH 630 0
DWIDTH 29 0
BBX 26 40 1 -15
BITMAP
0183E000
0F87FC00
3F0FFE00
FF1C3E00
3F381F00
0F701F00
0EE01F80
0FC01F80
0F801FC0
0F800FC0
0F800FC0
0F800FC0
0F800FC0
0F800FC0
0F800FC0
0F800FC0
0F801F80
0F801F80
0F801F00
0FC01F00
0FC01E00
0FE03E00
0FF87C00
0FFFFC00
0F9FE000
0F800000
0F800000
0F800000
0F800000
0F800000
0F800000
0F800000
0F800000
0F800000
0F800000
0F800000
1F800000
3FC00000
7FE00000
FFF00000
ENDCHAR
STARTCHAR 0071
ENCODING 113
SWIDTH 652 0
DWIDTH 30 0
BBX 25 40 4 -15
BITMAP
01F80800
1FFE1E00
1FFF1F00
3E079F80
3E03FE00
7E01FC00
7C00FC00
FC00FC00
FC00FC00
FC00FC00
FC00FC00
F800FC00
F800FC00
F800FC00
FC00FC00
FC00FC00
FC00FC00
FC00FC00
7C00FC00
7E01FC00
3E01FC00
3E03FC00
1F87FC00
1FFFFC00
03FCFC00
0000FC00
0000FC00
0000FC00
0000FC00
0000FC00
0000FC00
0000FC00
0000FC00
0000FC00
0000FC00
0000FC00
0000FC00
0001FE00
0003FF00
0007FF80
ENDCHAR
STARTCHAR 0072
ENCODING 114
SWIDTH 521 0
DWIDTH 24 0
BBX 21 26 2 0
BITMAP
004060
03C1F8
1FC3F8
FFC7F8
3F8FF8
079FF8
0798F8
07B0F0
07E0E0
07C0E0
07C0C0
07C000
07C000
07C000
07C000
07C000
07C000
07C000
07C000
07C000
07C000
07C000
0FE000
1FF000
3FF800
7FFC00
ENDCHAR
STARTCHAR 0073
ENCODING 115
SWIDTH 478 0
DWIDTH 22 0
BBX 19 26 2 0
BITMAP
01E200
1FFA00
3FFF00
3FFF00
7E0F00
7C0700
7C0700
FC0380
7F0180
7F8000
3FE000
1FF000
0FFC00
03FE00
01FF80
007F80
003FC0
E00FC0
6007E0
7007C0
7807C0
7807C0
7E0F80
3FBF80
27FF00
01FC00
ENDCHAR
STARTCHAR 0074
ENCODING 116
SWIDTH 369 0
DWIDTH 17 0
BBX 16 31 1 0
BITMAP
0180
0380
0380
0780
0F80
1F80
7F80
FFFE
FFFE
7FF8
1FC0
0F80
0F80
0F80
0F80
0F80
0F80
0F80
0F80
0F80
0F80
0F80
0F80
0F80
0F83
0F87
0FCE
07FC
03F8
03F0
01C0
ENDCHAR
STARTCHAR 0075
ENCODING 117
SWIDTH 608 0
DWIDTH 28 0
BBX 27 26 1 0
BITMAP
03000E00
7F01FE00
FF03FE00
3F007E00
1F007E00
1F007E00
1F007E00
1F007E00
1F007E00
1F007E00
1F007E00
1F007E00
1F007E00
1F007E00
1F007E00
1F007E00
1F007E00
1F007E00
1F00FE00
1F00FE00
1F01FE20
1F83FEE0
0FFFFFC0
0FFF8F80
03FF0F00
007C0600
ENDCHAR
STARTCHAR 0076
ENCODING 118
SWIDTH 608 0
DWIDTH 28 0
BBX 27 24 0 0
BITMAP
FFF07FE0
7FE03FC0
3FC01F80
1F800F00
0F800F00
0FC00E00
07C01E00
07E01C00
07E03C00
03E03800
03F03800
03F07000
01F07000
01F87000
00F8E000
00FCE000
00FDC000
007DC000
007F8000
007F8000
003F0000
003F0000
003E0000
001E0000
ENDCHAR
STARTCHAR 0077
ENCODING 119
SWIDTH 913 0
DWIDTH 42 0
BBX 42 24 0 0
BITMAP
FFF00000FFC0
7FE000007F80
3FC001003F00
1F8007001E00
0F800F801C00
0FC00F803C00
07C01F803800
07E01FC03800
07E03FC07800
03E03FC07000
03F037E0F000
03F077E0E000
01F067E0E000
01F863F1C000
00F8E3F1C000
00FCC1F18000
00FDC1FB8000
007DC1FB8000
007F80FF0000
007F80FF0000
003F00FE0000
003F007E0000
003E007C0000
001E003C0000
ENDCHAR
STARTCHAR 0078
ENCODING 120
SWIDTH 565 0
DWIDTH 26 0
BBX 25 24 0 0
BITMAP
FFE1FF80
7FC1FF00
3FC0FE00
1F80FC00
0FC0F800
07C1F000
03E1E000
01F3C000
01F78000
00FF0000
007E0000
003E0000
001F0000
003F8000
007F8000
00F7C000
01F3E000
03E1F000
07C1F800
0FC0F800
1F80FC00
3FC0FE00
7FC1FF00
FFE1FF80
ENDCHAR
STARTCHAR 0079
ENCODING 121
SWIDTH 630 0
DWIDTH 29 0
BBX 29 39 0 -15
BITMAP
FFF81FF8
7FF00FF0
3FE007E0
1FC003C0
0F8003C0
0FC00780
07C00700
07C00F00
03E00E00
03E01E00
01F01C00
01F03C00
00F03800
00F87800
00787000
0078F000
003CE000
003DE000
001FC000
001FC000
000F8000
000F8000
00070000
000F0000
001E0000
001C0000
003C0000
00780000
00F80000
00F00000
01F00000
03E00000
07E00000
07C00000
0FC00000
1F800000
3F800000
3F000000
1F000000
ENDCHAR
STARTCHAR 007A
ENCODING 122
SWIDTH 565 0
DWIDTH 26 0
BBX 22 26 2 0
BITMAP
100000
180000
1FFFF8
1FFFF8
1E03F0
3C07E0
380FC0
380F80
301F00
003F00
003E00
007C00
00F800
01F000
01F000
03E000
07C000
0F8000
0F000C
1F001C
3E0018
3C0038
7F0078
FFFC78
FFFFF0
FFFFF0
ENDCHAR
STARTCHAR 007B
ENCODING 123
SWIDTH 282 0
DWIDTH 13 0
BBX 13 44 0 -7
BITMAP
0008
0038
0070
00E0
01E0
03C0
03C0
07C0
0F80
0F80
0F80
0F80
0F80
0F80
0F80
0F80
0F80
0F00
0F00
1F00
3E00
7800
F000
7C00
3F00
1F00
0F00
0F80
0F80
0F80
0F80
0F80
0F80
0F80
0F80
0F80
07C0
03C0
03C0
01E0
00E0
0070
0038
0008
ENDCHAR
STARTCHAR 007C
ENCODING 124
SWIDTH 130 0
DWIDTH 6 0
BBX 2 39 2 -4
BITMAP
C0
C0
C0
C0
C0
C0
C0
C0
C0
C0
C0
C0
C0
C0
C0
C0
C0
C0
C0
C0
C0
C0
C0
C0
C0
C0
C0
C0
C0
C0
C0
C0
C0
C0
C0
C0
C0
C0
C0
ENDCHAR
STARTCHAR 007D
ENCODING 125
SWIDTH 282 0
DWIDTH 13 0
BBX 12 44 0 -7
BITMAP
8000
E000
7000
3800
3C00
3C00
1E00
1F00
1F80
0F80
0F80
0F80
0F80
0F80
0F80
0F80
0F80
0780
0780
07C0
03E0
00F0
00F0
03E0
07C0
0780
0780
0F80
0F80
0F80
0F80
0F80
0F80
0F80
0F80
1F80
1F00
1E00
3E00
3C00
3800
7000
E000
8000
ENDCHAR
STARTCHAR 007E
ENCODING 126
SWIDTH 608 0
DWIDTH 28 0
BBX 20 6 4 13
BITMAP
078000
0FC060
3FE1F0
78F3C0
F07F80
403E00
ENDCHAR
STARTCHAR 00A1
ENCODING 161
SWIDTH 239 0
DWIDTH 11 0
BBX 7 37 2 -15
BITMAP
3C
FC
FE
FE
FE
7E
78
00
00
00
00
30
30
70
70
70
78
78
78
78
78
7C
7C
FC
FC
FC
FE
FE
FE
FE
FE
FE
FE
FE
FE
FE
7C
ENDCHAR
STARTCHAR 00A2
ENCODING 162
SWIDTH 521 0
DWIDTH 24 0
BBX 22 41 0 -2
BITMAP
018000
008000
00C000
00C000
00C000
00C000
004000
007800
03FF00
1FEFE0
1F63E0
1E61F0
3E21F0
3E31F0
7E31E0
7C31C0
FC3180
FC1000
FC1800
FC1800
FC1800
FC1800
FC1800
FC0800
FC0C00
7C0C00
7E0C30
3E0C3C
3E0C78
1E0670
1FC7E0
0FFFC0
01FF00
000600
000200
000300
000300
000300
000300
000100
000180
ENDCHAR
STARTCHAR 00A3
ENCODING 163
SWIDTH 717 0
DWIDTH 33 0
BBX 29 39 2 -2
BITMAP
00003C00
0000FF00
0007FFC0
001FFFE0
003FFFF0
003F03F0
007F03F8
00FE03F8
00FE03F0
01FE03E0
00FE03C0
00FE0000
007E0000
007F0000
003F0000
003F0000
001F0000
001F0000
0FFFFF00
0FFFFF00
001F0000
001F0000
001F0000
003F0000
003E0000
003C0000
007C0018
00780018
00F80038
00F00078
00E00078
01E000F8
07C001F0
1F8001F0
7F0003F0
FFFFFFF0
FFFFFFF0
00000070
00000010
ENDCHAR
STARTCHAR 00A5
ENCODING 165
SWIDTH 673 0
DWIDTH 31 0
BBX 31 37 0 0
BITMAP
FFF007FE
7FE003FC
3FC001F8
1F8000F0
0FC000E0
07C001E0
07E001C0
03E003C0
03F00380
01F00700
01F80700
00FC0600
007C0E00
007E0C00
003E1C00
003F1800
001F3800
001FF000
000FE000
000FE000
0007C000
0007C000
03FFFFC0
03FFFFC0
0007C000
0007C000
0007C000
0007C000
03FFFFC0
0007C000
0007C000
0007C000
0007C000
000FE000
001FF000
003FF800
007FFC00
ENDCHAR
STARTCHAR 00A6
ENCODING 166
SWIDTH 130 0
DWIDTH 6 0
BBX 2 39 2 -4
BITMAP
C0
C0
C0
C0
C0
C0
C0
C0
C0
C0
C0
C0
C0
C0
C0
C0
00
00
00
00
00
00
C0
C0
C0
C0
C0
C0
C0
C0
C0
C0
C0
C0
C0
C0
C0
C0
C0
ENDCHAR
STARTCHAR 00A7
ENCODING 167
SWIDTH 565 0
DWIDTH 26 0
BBX 18 51 4 -14
BITMAP
03C200
3FF600
7FFE00
7E1E00
7E1E00
FC0F00
FC0700
F80700
F80300
F80000
780000
7C0000
7E0000
1F0000
0F8000
03E000
01F800
0FFE00
7E7F00
7C3F80
7C1F80
780F80
F80780
F807C0
F807C0
F807C0
F807C0
F807C0
F80780
780F80
7C0F80
7E1F80
7F1F00
1FFE00
07F000
01F000
007800
003E00
001F00
000F80
000F80
000F80
C00FC0
C01FC0
E01FC0
F01F80
703F00
787F00
7FFE00
7FFC00
47C000
ENDCHAR
STARTCHAR 00A8
ENCODING 168
SWIDTH 826 0
DWIDTH 38 0
BBX 13 6 7 31
BITMAP
3C78
7CF8
FCF8
FCF8
7870
3020
ENDCHAR
STARTCHAR 00A9
ENCODING 169
SWIDTH 826 0
DWIDTH 38 0
BBX 31 32 4 7
BITMAP
FFFFFFFE
FFFFFFFE
C0000006
C0000006
C01FF806
C03FFF86
C0FE1FC6
C1FC03C6
C3F003E6
C3E003E6
C7C001E6
CFC001C6
CFC001C6
DF800006
DF800006
DF800006
DF800006
DF800006
DF800006
CFC00006
C7C00006
C7C00186
C3E001E6
C1F003C6
C1FC0786
C07E1F06
C03FFE06
C00FF006
C0000006
C0000006
FFFFFFFE
FFFFFFFE
ENDCHAR
STARTCHAR 00AB
ENCODING 171
SWIDTH 521 0
DWIDTH 24 0
BBX 22 26 2 2
BITMAP
000800
001800
003C10
007C38
00FC78
01F0FC
03E3F0
07C7E0
0F8F80
1F1F00
3C3C00
787800
F06000
F07000
787800
3E3E00
1F1F00
0F8FC0
07C3E0
03E1F8
01F8FC
00FC78
007C38
003C00
001800
000800
ENDCHAR
STARTCHAR 00AE
ENCODING 174
SWIDTH 847 0
DWIDTH 39 0
BBX 31 32 4 7
BITMAP
FFFFFFFE
FFFFFFFE
C0000006
C0000006
CFFFF006
C7FC7F06
C3F81F06
C1F80F86
C1F807C6
C1F807C6
C1F803E6
C1F807E6
C1F807C6
C1F80FC6
C1F81F86
C1F87F06
C1FFFF06
C1FFF806
C1FFC006
C1FBFE06
C1F8FFE6
C1F83FE6
C1F81FE6
C1F80FE6
C1F807E6
C3FC03E6
C7FE00E6
CFFF0046
C0000006
C0000006
FFFFFFFE
FFFFFFFE
ENDCHAR
STARTCHAR 00B0
ENCODING 176
SWIDTH 478 0
DWIDTH 22 0
BBX 14 15 4 26
BITMAP
0780
0FC0
1EE0
3C70
7838
F01C
E01C
E01C
E01C
F01C
7838
3C70
1EE0
0FC0
0780
ENDCHAR
STARTCHAR 00B1
ENCODING 177
SWIDTH 608 0
DWIDTH 28 0
BBX 26 33 0 0
BITMAP
001E0000
001E0000
001E0000
001E0000
001E0000
001E0000
001E0000
001E0000
001E0000
001E0000
001E0000
FFFFFFC0
FFFFFFC0
FFFFFFC0
001E0000
001E0000
001E0000
001E0000
001E0000
001E0000
001E0000
001E0000
001E0000
001E0000
001E0000
00000000
00000000
00000000
00000000
3FFFFF00
3FFFFF00
3FFFFF00
3FFFFF00
ENDCHAR
STARTCHAR 00B4
ENCODING 180
SWIDTH 847 0
DWIDTH 39 0
BBX 10 7 10 30
BITMAP
0380
07C0
0FC0
1FC0
3F00
7C00
E000
ENDCHAR
STARTCHAR 00B6
ENCODING 182
SWIDTH 521 0
DWIDTH 24 0
BBX 18 52 2 -15
BITMAP
007FC0
03FFC0
1FF8C0
1FF8C0
3FF8C0
3FF8C0
7FF8C0
7FF8C0
FFF8C0
FFF8C0
FFF8C0
FFF8C0
FFF8C0
FFF8C0
FFF8C0
7FF8C0
7FF8C0
3FF8C0
3FF8C0
1FF8C0
1FF8C0
03F8C0
0078C0
0018C0
0018C0
0018C0
0018C0
0018C0
0018C0
0018C0
0018C0
0018C0
0018C0
0018C0
0018C0
0018C0
0018C0
0018C0
0018C0
0018C0
0018C0
0018C0
0018C0
0018C0
0018C0
0018C0
0018C0
0018C0
0018C0
0018C0
0018C0
0018C0
ENDCHAR
STARTCHAR 00B8
ENCODING 184
SWIDTH 826 0
DWIDTH 38 0
BBX 10 12 7 -10
BITMAP
1800
1C00
3800
3C00
3F80
07C0
00C0
61C0
E180
7380
7F80
3F00
ENDCHAR
STARTCHAR 00BB
ENCODING 187
SWIDTH 521 0
DWIDTH 24 0
BBX 22 25 0 2
BITMAP
004000
00E000
60F000
71F800
F8FC00
FC3E00
7E1F00
1F8F80
0FC7C0
03E3E0
01F0F0
007878
00383C
003838
0078F0
01F1E0
03E3C0
0FC780
1F0F00
7E3E00
FC7C00
78F800
70F000
00E000
004000
ENDCHAR
STARTCHAR 00BC
ENCODING 188
SWIDTH 956 0
DWIDTH 44 0
BBX 36 40 4 -3
BITMAP
0180300000
0780300000
0780200000
0F80600000
0F80600000
1F80600000
7F80600000
FF80600000
FF80C00000
1F80C00180
1F80C01F80
1F80C07F80
1F80C0FF80
1F8080FF80
1F8181FF80
1F8181DF80
1F8183DF80
1F81879F80
1F81879F80
1F830F1F80
1F830F1F80
1F831F1F80
1F833E1F80
3FC33E1F80
7FE27C1F80
FFF67C1F80
00067E1F80
00067FDF80
00063FFFF0
0006001F80
000C001F80
000C001F80
000C001F80
000C001F80
000C003FC0
0008007FE0
001800FFF0
0018000000
0018000000
0018000000
ENDCHAR
STARTCHAR 00BD
ENCODING 189
SWIDTH 1000 0
DWIDTH 46 0
BBX 38 40 4 -1
BITMAP
0000300000
0000300000
0180300000
0780300000
0780300000
0F80200000
0F80600000
1F80600000
7F80600000
FF80600000
FF80400000
1F80C00000
1F80C00000
1F80C0F800
1F80C1FF00
1F80C7FF80
1F808FFFC0
1F818F8FE0
1F819F07E0
1F819F03F0
1F819F03F0
1F813F01F0
1F833F01F0
1F831F03F0
1F830F03F0
3FC30707F0
7FE3000FE0
FFF2001FE0
0006003FC0
0006007F8C
000600FF0C
000601FC1C
000403F03C
000C07C07C
000C0F0078
000C1FC0F8
000C3FFDF8
000C3FFFF8
00083FFFF8
0018000018
ENDCHAR
STARTCHAR 00BE
ENCODING 190
SWIDTH 1130 0
DWIDTH 52 0
BBX 44 40 4 -3
BITMAP
01F000600000
0FFE00600000
1F3F80600000
1E0F80600000
1E07C0400000
1C07C0C00000
1C03C0C00000
000380C00000
000780C00000
000F00C00100
00DE00801F00
00FE0180FF00
00FF8180FF00
019FC181DF00
190FE181DF00
3807E103DF00
7803F3079F00
F803F3079F00
F803F30F1F00
F803E30F1F00
7807E31E1F00
7C07C63E1F00
3F0FC63E1F00
1FDF067C1F00
0FFE067C1F00
01F806F81F00
000004FE1F00
00000CFFDF00
00000C7FFFF0
00000C001F00
00000C001F00
00000C001F00
000018001F00
000018003F80
000018007FC0
00001800FFE0
00001801FFF0
000010000000
000030000000
000030000000
ENDCHAR
STARTCHAR 00BF
ENCODING 191
SWIDTH 521 0
DWIDTH 24 0
BBX 22 37 2 -15
BITMAP
007000
00FC00
00FE00
01FE00
01FC00
01FC00
007800
000000
000000
000000
000000
001800
000C00
000E00
000700
000F00
001F00
007E00
01F800
07E000
1FC000
1F0000
3E0000
7C0000
7C00E0
F800F0
F800F8
F800FC
F800FC
F800FC
7C00F8
7C01F8
3E01F0
1F03E0
1FCFE0
07FF80
00FC00
ENDCHAR
STARTCHAR 00C0
ENCODING 192
SWIDTH 760 0
DWIDTH 35 0
BBX 34 50 0 0
BITMAP
0006000000
000F000000
001F800000
001FC00000
000FE00000
0001F00000
0000780000
00000C0000
0000000000
0000000000
0000000000
0000000000
0000600000
0000E00000
0001F00000
0001F00000
0001F00000
0003F80000
0003F80000
0003F80000
0007FC0000
00077C0000
00077E0000
000F3E0000
000E3E0000
001E3F0000
001C1F0000
001C1F0000
003C1F8000
00380F8000
00380F8000
00780FC000
007007C000
00F007E000
00F003E000
00E003E000
01E003F000
01FFFFF000
01FFFFF000
03C001F800
038000F800
078000F800
078000FC00
0700007C00
0F00007E00
0F00007E00
1F00003E00
3F80007F00
7FC0007F80
FFE000FFC0
ENDCHAR
STARTCHAR 00C1
ENCODING 193
SWIDTH 760 0
DWIDTH 35 0
BBX 34 50 0 0
BITMAP
0000300000
0000780000
0000FC0000
0001FC0000
0003F80000
0007C00000
000F000000
0018000000
0000000000
0000000000
0000000000
0000000000
0000600000
0000E00000
0001F00000
0001F00000
0001F00000
0003F80000
0003F80000
0003F80000
0007FC0000
00077C0000
00077E0000
000F3E0000
000E3E0000
001E3F0000
001C1F0000
001C1F0000
003C1F8000
00380F8000
00380F8000
00780FC000
007007C000
00F007E000
00F003E000
00E003E000
01E003F000
01FFFFF000
01FFFFF000
03C001F800
038000F800
078000F800
078000FC00
0700007C00
0F00007E00
0F00007E00
1F00003E00
3F80007F00
7FC0007F80
FFE000FFC0
ENDCHAR
STARTCHAR 00C2
ENCODING 194
SWIDTH 760 0
DWIDTH 35 0
BBX 34 50 0 0
BITMAP
0001E00000
0003E00000
0007F00000
000FF80000
000F7C0000
001C1C0000
00380E0000
0060030000
0000000000
0000000000
0000000000
0000000000
0000600000
0000E00000
0001F00000
0001F00000
0001F00000
0003F80000
0003F80000
0003F80000
0007FC0000
00077C0000
00077E0000
000F3E0000
000E3E0000
001E3F0000
001C1F0000
001C1F0000
003C1F8000
00380F8000
00380F8000
00780FC000
007007C000
00F007E000
00F003E000
00E003E000
01E003F000
01FFFFF000
01FFFFF000
03C001F800
038000F800
078000F800
078000FC00
0700007C00
0F00007E00
0F00007E00
1F00003E00
3F80007F00
7FC0007F80
FFE000FFC0
ENDCHAR
STARTCHAR 00C3
ENCODING 195
SWIDTH 760 0
DWIDTH 35 0
BBX 34 48 0 0
BITMAP
0007800000
000FC18000
001DE38000
0038F70000
00307E0000
00003C0000
0000000000
0000000000
0000000000
0000000000
0000600000
0000E00000
0001F00000
0001F00000
0001F00000
0003F80000
0003F80000
0003F80000
0007FC0000
00077C0000
00077E0000
000F3E0000
000E3E0000
001E3F0000
001C1F0000
001C1F0000
003C1F8000
00380F8000
00380F8000
00780FC000
007007C000
00F007E000
00F003E000
00E003E000
01E003F000
01FFFFF000
01FFFFF000
03C001F800
038000F800
078000F800
078000FC00
0700007C00
0F00007E00
0F00007E00
1F00003E00
3F80007F00
7FC0007F80
FFE000FFC0
ENDCHAR
STARTCHAR 00C4
ENCODING 196
SWIDTH 760 0
DWIDTH 35 0
BBX 34 48 0 0
BITMAP
00078F0000
000F9F0000
001FBF0000
001FBF0000
000F1E0000
00060C0000
0000000000
0000000000
0000000000
0000000000
0000600000
0000E00000
0001F00000
0001F00000
0001F00000
0003F80000
0003F80000
0003F80000
0007FC0000
00077C0000
00077E0000
000F3E0000
000E3E0000
001E3F0000
001C1F0000
001C1F0000
003C1F8000
00380F8000
00380F8000
00780FC000
007007C000
00F007E000
00F003E000
00E003E000
01E003F000
01FFFFF000
01FFFFF000
03C001F800
038000F800
078000F800
078000FC00
0700007C00
0F00007E00
0F00007E00
1F00003E00
3F80007F00
7FC0007F80
FFE000FFC0
ENDCHAR
STARTCHAR 00C5
ENCODING 197
SWIDTH 760 0
DWIDTH 35 0
BBX 34 52 0 0
BITMAP
0000E00000
0001F00000
0003180000
00060C0000
00060C0000
00060C0000
00060C0000
0003180000
0001F00000
0000E00000
0000000000
0000000000
0000000000
0000000000
0000600000
0000E00000
0001E00000
0001F00000
0001F00000
0001F80000
0003F80000
0003F80000
0007FC0000
00077C0000
00077C0000
000F3E0000
000E3E0000
000E3F0000
001C1F0000
001C1F0000
003C1F8000
00380F8000
00380F8000
00780FC000
007007C000
007007C000
00F007E000
00E003E000
01E003F000
01FFFFF000
01FFFFF000
03C001F800
03C000F800
038000F800
078000FC00
0700007C00
0F00007E00
0F00007E00
0E00003E00
1F00007F00
3F80007F80
FFE000FFC0
ENDCHAR
STARTCHAR 00C6
ENCODING 198
SWIDTH 1086 0
DWIDTH 50 0
BBX 48 40 0 -2
BITMAP
000000000030
0000000003F0
00003FFFFFF8
00003FF801F8
00007FF000F8
000077F000F8
0000F3F00078
0000E3F00038
0001E3F0003C
0001C3F0001C
0001C3F0000C
0003C3F00000
000383F00000
000783F00000
000703F00000
000F03F00100
000E03F00300
001E03F80700
001E03FFFF00
001C03FFFF00
003C03F80700
003803F00300
007803F00100
007003F00100
00F003F00000
00F003F00000
01FFFFF00000
01FFFFF00000
01C003F00003
03C003F00007
038003F0000E
078003F0000E
078003F0001E
0F0003F0001E
0F0003F0003E
1F0003F0007E
3F8007F8007E
7FC00FFFFFFC
FFE01FFFFFFC
00000000000C
ENDCHAR
STARTCHAR 00C7
ENCODING 199
SWIDTH 760 0
DWIDTH 35 0
BBX 31 48 2 -11
BITMAP
000FFE00
003FFF80
00FE07E0
03FC03F8
07F001FC
0FE000FC
1FC000FE
1FC000FE
3F8000FC
3F0000F8
7F0000F0
7E000000
7E000000
7E000000
7E000000
FE000000
FE000000
FE000000
FE000000
FE000000
FE000000
FE000000
7E000000
7E000000
7E000000
7E000000
7F000004
3F00000E
3F80000E
1FC0001C
1FC00018
0FE00038
07F80070
03FE01E0
00FF8FC0
003FFF00
000FFE00
0001C000
0001C000
0001E000
0001F800
00007C00
00000C00
00020C00
00071C00
00071800
0003F800
0003F000
ENDCHAR
STARTCHAR 00C8
ENCODING 200
SWIDTH 717 0
DWIDTH 33 0
BBX 29 51 2 -1
BITMAP
01800000
03C00000
07E00000
07F00000
01F80000
003C0000
000E0000
00010000
00000000
00000000
00000000
000000C0
00000FC0
FFFFFFC0
7FE00FC0
3FC007C0
1F8003E0
0F8003E0
0F8001E0
0F8000E0
0F800060
0F800060
0F800000
0F800000
0F800000
0F800000
0F800400
0F800C00
0FC01C00
0FFFFC00
0FFFFC00
0FC01C00
0F800C00
0F800400
0F800000
0F800000
0F800000
0F800000
0F800018
0F800018
0F800038
0F800078
0F800078
0F8000F8
0F8000F0
0F8001F0
1FC003F0
3FFFFFF0
7FFFFFF0
FFFFFFF0
00000030
ENDCHAR
STARTCHAR 00C9
ENCODING 201
SWIDTH 717 0
DWIDTH 33 0
BBX 29 51 2 -1
BITMAP
00038000
0007C000
000FC000
001FC000
003F8000
007C0000
00F00000
00000000
00000000
00000000
00000000
000000C0
00000FC0
FFFFFFC0
7FE00FC0
3FC007C0
1F8003E0
0F8003E0
0F8001E0
0F8000E0
0F800060
0F800060
0F800000
0F800000
0F800000
0F800000
0F800400
0F800C00
0FC01C00
0FFFFC00
0FFFFC00
0FC01C00
0F800C00
0F800400
0F800000
0F800000
0F800000
0F800000
0F800018
0F800018
0F800038
0F800078
0F800078
0F8000F8
0F8000F0
0F8001F0
1FC003F0
3FFFFFF0
7FFFFFF0
FFFFFFF0
00000030
ENDCHAR
STARTCHAR 00CA
ENCODING 202
SWIDTH 717 0
DWIDTH 33 0
BBX 29 51 2 -1
BITMAP
001E0000
003F0000
007F0000
00FF8000
00F3C000
01C1E000
03806000
00001000
00000000
00000000
00000000
000000C0
00000FC0
FFFFFFC0
7FE00FC0
3FC007C0
1F8003E0
0F8003E0
0F8001E0
0F8000E0
0F800060
0F800060
0F800000
0F800000
0F800000
0F800000
0F800400
0F800C00
0FC01C00
0FFFFC00
0FFFFC00
0FC01C00
0F800C00
0F800400
0F800000
0F800000
0F800000
0F800000
0F800018
0F800018
0F800038
0F800078
0F800078
0F8000F8
0F8000F0
0F8001F0
1FC003F0
3FFFFFF0
7FFFFFF0
FFFFFFF0
00000030
ENDCHAR
STARTCHAR 00CB
ENCODING 203
SWIDTH 717 0
DWIDTH 33 0
BBX 29 49 2 -1
BITMAP
01E3C000
03E7C000
07E7C000
07E7C000
03C38000
00000000
00000000
00000000
00000000
000000C0
00000FC0
FFFFFFC0
7FE00FC0
3FC007C0
1F8003E0
0F8003E0
0F8001E0
0F8000E0
0F800060
0F800060
0F800000
0F800000
0F800000
0F800000
0F800400
0F800C00
0FC01C00
0FFFFC00
0FFFFC00
0FC01C00
0F800C00
0F800400
0F800000
0F800000
0F800000
0F800000
0F800018
0F800018
0F800038
0F800078
0F800078
0F8000F8
0F8000F0
0F8001F0
1FC003F0
3FFFFFF0
7FFFFFF0
FFFFFFF0
00000030
ENDCHAR
STARTCHAR 00CC
ENCODING 204
SWIDTH 369 0
DWIDTH 17 0
BBX 12 50 2 0
BITMAP
7000
F800
FC00
FE00
3F00
0F80
01C0
0000
0000
0000
0000
0000
0000
FFF0
7FE0
3FC0
1F80
0F80
0F80
0F80
0F80
0F80
0F80
0F80
0F80
0F80
0F80
0F80
0F80
0F80
0F80
0F80
0F80
0F80
0F80
0F80
0F80
0F80
0F80
0F80
0F80
0F80
0F80
0F80
0F80
0F80
1F80
3FC0
7FE0
FFF0
ENDCHAR
STARTCHAR 00CD
ENCODING 205
SWIDTH 369 0
DWIDTH 17 0
BBX 13 50 2 0
BITMAP
0060
00F0
01F8
03F8
07E0
0F80
1C00
2000
0000
0000
0000
0000
0000
FFF0
7FE0
3FC0
1F80
0F80
0F80
0F80
0F80
0F80
0F80
0F80
0F80
0F80
0F80
0F80
0F80
0F80
0F80
0F80
0F80
0F80
0F80
0F80
0F80
0F80
0F80
0F80
0F80
0F80
0F80
0F80
0F80
0F80
1F80
3FC0
7FE0
FFF0
ENDCHAR
STARTCHAR 00CE
ENCODING 206
SWIDTH 369 0
DWIDTH 17 0
BBX 12 50 2 0
BITMAP
0600
0F00
0F80
1FC0
3FC0
7FE0
7070
8000
0000
0000
0000
0000
0000
FFF0
7FE0
3FC0
1F80
0F80
0F80
0F80
0F80
0F80
0F80
0F80
0F80
0F80
0F80
0F80
0F80
0F80
0F80
0F80
0F80
0F80
0F80
0F80
0F80
0F80
0F80
0F80
0F80
0F80
0F80
0F80
0F80
0F80
1F80
3FC0
7FE0
FFF0
ENDCHAR
STARTCHAR 00CF
ENCODING 207
SWIDTH 369 0
DWIDTH 17 0
BBX 13 48 2 0
BITMAP
78F8
F9F8
F9F8
F9F8
70F0
0000
0000
0000
0000
0000
0000
FFF0
7FE0
3FC0
1F80
0F80
0F80
0F80
0F80
0F80
0F80
0F80
0F80
0F80
0F80
0F80
0F80
0F80
0F80
0F80
0F80
0F80
0F80
0F80
0F80
0F80
0F80
0F80
0F80
0F80
0F80
0F80
0F80
0F80
1F80
3FC0
7FE0
FFF0
ENDCHAR
STARTCHAR 00D1
ENCODING 209
SWIDTH 847 0
DWIDTH 39 0
BBX 34 50 2 -2
BITMAP
000F810000
001FC38000
003DE78000
0078FF0000
00307E0000
0000000000
0000000000
0000000000
0000000000
0000000000
0000000000
FFE000FFC0
7FF0007F80
3FF0003F00
1FF8001E00
0FFC001E00
0FFC001E00
0EFE001E00
0EFE001E00
0E7F001E00
0E3F801E00
0E3F801E00
0E1FC01E00
0E1FC01E00
0E0FE01E00
0E07F01E00
0E07F01E00
0E03F81E00
0E03F81E00
0E01FC1E00
0E00FE1E00
0E00FE1E00
0E007F1E00
0E003F1E00
0E003F9E00
0E001FDE00
0E001FDE00
0E000FFE00
0E0007FE00
0E0007FE00
0E0003FE00
0E0003FE00
0E0001FE00
0E0000FE00
1F0000FE00
3F80007E00
7FC0007E00
FFE0003C00
0000001800
0000001000
ENDCHAR
STARTCHAR 00D2
ENCODING 210
SWIDTH 956 0
DWIDTH 44 0
BBX 36 50 4 0
BITMAP
0038000000
007C000000
007E000000
007F000000
001F800000
0007C00000
0000E00000
0000000000
0000000000
0000000000
0000000000
0000000000
0000000000
000FFF8000
003FFFE000
00FE07F800
03FC03FE00
07F000FF00
0FE0007F00
1FC0003F80
1F80001FC0
3F80001FC0
7F00000FE0
7E000007E0
7E000007E0
7E000007E0
7E000007F0
FE000007F0
FE000007F0
FE000007F0
FE000007F0
FE000007F0
FE000007F0
FE000007F0
FE000007F0
FE000007F0
7E000007E0
7E000007E0
7E000007E0
7F000007E0
7F00000FE0
3F80001FC0
1FC0001F80
1FC0003F80
0FE0007F00
07F800FE00
03FC03FC00
00FF07F000
003FFFC000
000FFF0000
ENDCHAR
STARTCHAR 00D3
ENCODING 211
SWIDTH 956 0
DWIDTH 44 0
BBX 36 50 4 0
BITMAP
0000070000
00000F8000
00001F8000
00003F8000
00007F0000
0000F80000
0001E00000
0000000000
0000000000
0000000000
0000000000
0000000000
0000000000
000FFF8000
003FFFE000
00FE07F800
03FC03FE00
07F000FF00
0FE0007F00
1FC0003F80
1F80001FC0
3F80001FC0
7F00000FE0
7E000007E0
7E000007E0
7E000007E0
7E000007F0
FE000007F0
FE000007F0
FE000007F0
FE000007F0
FE000007F0
FE000007F0
FE000007F0
FE000007F0
FE000007F0
7E000007E0
7E000007E0
7E000007E0
7F000007E0
7F00000FE0
3F80001FC0
1FC0001F80
1FC0003F80
0FE0007F00
07F800FE00
03FC03FC00
00FF07F000
003FFFC000
000FFF0000
ENDCHAR
STARTCHAR 00D4
ENCODING 212
SWIDTH 956 0
DWIDTH 44 0
BBX 36 50 4 0
BITMAP
0000F00000
0001F80000
0003FC0000
0003FC0000
00079E0000
000F070000
001C038000
0000000000
0000000000
0000000000
0000000000
0000000000
0000000000
000FFF8000
003FFFE000
00FE07F800
03FC03FE00
07F000FF00
0FE0007F00
1FC0003F80
1F80001FC0
3F80001FC0
7F00000FE0
7E000007E0
7E000007E0
7E000007E0
7E000007F0
FE000007F0
FE000007F0
FE000007F0
FE000007F0
FE000007F0
FE000007F0
FE000007F0
FE000007F0
FE000007F0
7E000007E0
7E000007E0
7E000007E0
7F000007E0
7F00000FE0
3F80001FC0
1FC0001F80
1FC0003F80
0FE0007F00
07F800FE00
03FC03FC00
00FF07F000
003FFFC000
000FFF0000
ENDCHAR
STARTCHAR 00D5
ENCODING 213
SWIDTH 956 0
DWIDTH 44 0
BBX 36 48 4 0
BITMAP
000F810000
001FC38000
003DE78000
0078FF0000
00307E0000
0000000000
0000000000
0000000000
0000000000
0000000000
0000000000
000FFF8000
003FFFE000
00FE07F800
03FC03FE00
07F000FF00
0FE0007F00
1FC0003F80
1F80001FC0
3F80001FC0
7F00000FE0
7E000007E0
7E000007E0
7E000007E0
7E000007F0
FE000007F0
FE000007F0
FE000007F0
FE000007F0
FE000007F0
FE000007F0
FE000007F0
FE000007F0
FE000007F0
7E000007E0
7E000007E0
7E000007E0
7F000007E0
7F00000FE0
3F80001FC0
1FC0001F80
1FC0003F80
0FE0007F00
07F800FE00
03FC03FC00
00FF07F000
003FFFC000
000FFF0000
ENDCHAR
STARTCHAR 00D6
ENCODING 214
SWIDTH 956 0
DWIDTH 44 0
BBX 36 48 4 0
BITMAP
000F1F0000
001F3F0000
001F3F0000
001F3F0000
000E1E0000
0000000000
0000000000
0000000000
0000000000
0000000000
0000000000
000FFF8000
003FFFE000
00FE07F800
03FC03FE00
07F000FF00
0FE0007F00
1FC0003F80
1F80001FC0
3F80001FC0
7F00000FE0
7E000007E0
7E000007E0
7E000007E0
7E000007F0
FE000007F0
FE000007F0
FE000007F0
FE000007F0
FE000007F0
FE000007F0
FE000007F0
FE000007F0
FE000007F0
7E000007E0
7E000007E0
7E000007E0
7F000007E0
7F00000FE0
3F80001FC0
1FC0001F80
1FC0003F80
0FE0007F00
07F800FE00
03FC03FC00
00FF07F000
003FFFC000
000FFF0000
ENDCHAR
STARTCHAR 00D7
ENCODING 215
SWIDTH 630 0
DWIDTH 29 0
BBX 22 22 4 4
BITMAP
100020
380070
7800F8
FC01FC
7E01F8
3F03F0
1F87C0
0F8F80
03DF00
01FE00
00F800
00F800
01FC00
03DF00
078F80
1F87C0
3F03E0
7E03F8
FC01FC
7800F8
380070
100020
ENDCHAR
STARTCHAR 00D8
ENCODING 216
SWIDTH 956 0
DWIDTH 44 0
BBX 36 45 4 -4
BITMAP
0000030000
0000060000
0000060000
0000060000
000FFF8000
003FFFE000
00FE0FF800
03FC0FFE00
07F00CFE00
0FE00C7F00
1FC0083F80
1F80181F80
3F80181FC0
7F00180FE0
7E001807E0
7E001007E0
7E003007E0
7E003007F0
FE003007F0
FE003007F0
FE002007F0
FE006007F0
FE006007F0
FE006007F0
FE006007F0
FE004007F0
FE00C007F0
7E00C007E0
7E00C007E0
7E00C007E0
7E008007E0
7F01800FE0
3F81801FC0
1F81801F80
1FC1803F80
0FE3007F00
07F300FF00
03FF03FE00
00FF07F800
003FFFE000
000FFF8000
0006000000
0006000000
0006000000
0004000000
ENDCHAR
STARTCHAR 00D9
ENCODING 217
SWIDTH 847 0
DWIDTH 39 0
BBX 34 50 2 0
BITMAP
0038000000
007C000000
007E000000
007F000000
001F800000
0007C00000
0000E00000
0000100000
0000000000
0000000000
0000000000
0000000000
0000000000
FFF000FFC0
7FE0007F80
3FC0003F00
1F80001E00
0F80001E00
0F80001E00
0F80001E00
0F80001E00
0F80001E00
0F80001E00
0F80001E00
0F80001E00
0F80001E00
0F80001E00
0F80001E00
0F80001E00
0F80001E00
0F80001E00
0F80001E00
0F80001E00
0F80001E00
0F80001E00
0F80001E00
0F80001E00
0F80001E00
0F80001E00
0FC0001E00
0FC0001E00
0FC0001C00
07C0003C00
07E0003C00
03E0007800
01F800F000
00FC01E000
007F07C000
001FFF8000
0003FE0000
ENDCHAR
STARTCHAR 00DA
ENCODING 218
SWIDTH 847 0
DWIDTH 39 0
BBX 34 50 2 0
BITMAP
0000030000
0000078000
00000FC000
00001FC000
00003F0000
0000780000
0000E00000
0001000000
0000000000
0000000000
0000000000
0000000000
0000000000
FFF000FFC0
7FE0007F80
3FC0003F00
1F80001E00
0F80001E00
0F80001E00
0F80001E00
0F80001E00
0F80001E00
0F80001E00
0F80001E00
0F80001E00
0F80001E00
0F80001E00
0F80001E00
0F80001E00
0F80001E00
0F80001E00
0F80001E00
0F80001E00
0F80001E00
0F80001E00
0F80001E00
0F80001E00
0F80001E00
0F80001E00
0FC0001E00
0FC0001E00
0FC0001C00
07C0003C00
07E0003C00
03E0007800
01F800F000
00FC01E000
007F07C000
001FFF8000
0003FE0000
ENDCHAR
STARTCHAR 00DB
ENCODING 219
SWIDTH 847 0
DWIDTH 39 0
BBX 34 50 2 0
BITMAP
0000F00000
0001F80000
0001FC0000
0003FE0000
00079E0000
000F070000
000C038000
0010000000
0000000000
0000000000
0000000000
0000000000
0000000000
FFF000FFC0
7FE0007F80
3FC0003F00
1F80001E00
0F80001E00
0F80001E00
0F80001E00
0F80001E00
0F80001E00
0F80001E00
0F80001E00
0F80001E00
0F80001E00
0F80001E00
0F80001E00
0F80001E00
0F80001E00
0F80001E00
0F80001E00
0F80001E00
0F80001E00
0F80001E00
0F80001E00
0F80001E00
0F80001E00
0F80001E00
0FC0001E00
0FC0001E00
0FC0001C00
07C0003C00
07E0003C00
03E0007800
01F800F000
00FC01E000
007F07C000
001FFF8000
0003FE0000
ENDCHAR
STARTCHAR 00DC
ENCODING 220
SWIDTH 847 0
DWIDTH 39 0
BBX 34 48 2 0
BITMAP
000F0F0000
001F1F0000
001F3F0000
001F3F0000
000F1E0000
0000000000
0000000000
0000000000
0000000000
0000000000
0000000000
FFF000FFC0
7FE0007F80
3FC0003F00
1F80001E00
0F80001E00
0F80001E00
0F80001E00
0F80001E00
0F80001E00
0F80001E00
0F80001E00
0F80001E00
0F80001E00
0F80001E00
0F80001E00
0F80001E00
0F80001E00
0F80001E00
0F80001E00
0F80001E00
0F80001E00
0F80001E00
0F80001E00
0F80001E00
0F80001E00
0F80001E00
0FC0001E00
0FC0001E00
0FC0001C00
07C0003C00
07E0003C00
03E0007800
01F800F000
00FC01E000
007F07C000
001FFF8000
0003FE0000
ENDCHAR
STARTCHAR 00DD
ENCODING 221
SWIDTH 673 0
DWIDTH 31 0
BBX 31 50 0 0
BITMAP
00003800
00007C00
0000FC00
0001FC00
0003F000
0007C000
000E0000
00000000
00000000
00000000
00000000
00000000
00000000
FFF007FE
7FE003FC
3FC001F8
1F8000F0
0FC000E0
07C001E0
07E001C0
03E00380
03F00380
01F80700
01F80700
00FC0600
007C0E00
007E0C00
003E1C00
003F1800
001FB000
001FF000
000FE000
000FE000
0007C000
0007C000
0007C000
0007C000
0007C000
0007C000
0007C000
0007C000
0007C000
0007C000
0007C000
0007C000
0007C000
000FE000
001FF000
003FF800
007FFC00
ENDCHAR
STARTCHAR 00E0
ENCODING 224
SWIDTH 608 0
DWIDTH 28 0
BBX 24 37 2 0
BITMAP
01C000
03E000
07F000
07F800
01FC00
003E00
000F00
000000
000000
000000
000000
003800
00FF80
03FFE0
0FFFE0
0F87F0
0703F0
0301F0
0001F0
0001F0
0007F0
00FFF0
07FDF0
1FF1F0
7FC1F0
7F01F0
7E01F0
FC01F0
FC01F0
F801F0
7C03F0
7E03F1
3E07F7
1F0F7E
1FBC7C
07F838
01E030
ENDCHAR
STARTCHAR 00E1
ENCODING 225
SWIDTH 608 0
DWIDTH 28 0
BBX 24 37 2 0
BITMAP
000380
0007C0
000FC0
001FC0
003F00
007C00
00E000
000000
000000
000000
000000
003800
00FF80
03FFE0
0FFFE0
0F87F0
0703F0
0301F0
0001F0
0001F0
0007F0
00FFF0
07FDF0
1FF1F0
7FC1F0
7F01F0
7E01F0
FC01F0
FC01F0
F801F0
7C03F0
7E03F1
3E07F7
1F0F7E
1FBC7C
07F838
01E030
ENDCHAR
STARTCHAR 00E2
ENCODING 226
SWIDTH 608 0
DWIDTH 28 0
BBX 24 37 2 0
BITMAP
003E00
003F00
007F00
00FF80
01F3C0
01C1E0
038060
000010
000000
000000
000000
003800
00FF80
03FFE0
0FFFE0
0F87F0
0703F0
0301F0
0001F0
0001F0
0007F0
00FFF0
07FDF0
1FF1F0
7FC1F0
7F01F0
7E01F0
FC01F0
FC01F0
F801F0
7C03F0
7E03F1
3E07F7
1F0F7E
1FBC7C
07F838
01E030
ENDCHAR
STARTCHAR 00E3
ENCODING 227
SWIDTH 608 0
DWIDTH 28 0
BBX 24 37 2 0
BITMAP
01E020
03F070
0738E0
0E1DC0
0C0F80
000700
000000
000000
000000
000000
000000
003800
00FF80
03FFE0
0FFFE0
0F87F0
0703F0
0301F0
0001F0
0001F0
0007F0
00FFF0
07FDF0
1FF1F0
7FC1F0
7F01F0
7E01F0
FC01F0
FC01F0
F801F0
7C03F0
7E03F1
3E07F7
1F0F7E
1FBC7C
07F838
01E030
ENDCHAR
STARTCHAR 00E4
ENCODING 228
SWIDTH 608 0
DWIDTH 28 0
BBX 24 37 2 0
BITMAP
01E3C0
03E7C0
07E7C0
07E7C0
03C380
018100
000000
000000
000000
000000
000000
003800
00FF80
03FFE0
0FFFE0
0F87F0
0703F0
0301F0
0001F0
0001F0
0007F0
00FFF0
07FDF0
1FF1F0
7FC1F0
7F01F0
7E01F0
FC01F0
FC01F0
F801F0
7C03F0
7E03F1
3E07F7
1F0F7E
1FBC7C
07F838
01E030
ENDCHAR
STARTCHAR 00E5
ENCODING 229
SWIDTH 608 0
DWIDTH 28 0
BBX 24 37 2 0
BITMAP
003800
007C00
00C600
018300
018100
018300
00C600
007C00
003800
000000
000000
003C00
00FFC0
03FFE0
0FFFE0
0F83F0
0701F0
0301F0
0001F0
0001F0
000FF0
01FFF0
0FF9F0
3FE1F0
7F81F0
7E01F0
7E01F0
FC01F0
FC01F0
FC03F0
7C03F0
7E07F1
3F07F7
1F0F7E
1FBC7C
07F838
01E030
ENDCHAR
STARTCHAR 00E6
ENCODING 230
SWIDTH 847 0
DWIDTH 39 0
BBX 37 26 2 0
BITMAP
01FC01F800
0FFF07FF00
1F8F8F9F80
3E079F07C0
1E03DE07E0
0C01FC07E0
0401FC07F0
0001F807F8
0000F807F0
0000F80FF0
0000F1FFE0
0FFFFFFE00
3FFFFE0000
7FF8F00000
7F00F80000
7E00F80000
FC01F80000
FC01F80000
F801FC0000
7C01FC0100
7C03FC0380
3E0FDE03C0
1FFF9F0FC0
1FFF8FBF80
07FE07FE00
01F801F000
ENDCHAR
STARTCHAR 00E7
ENCODING 231
SWIDTH 521 0
DWIDTH 24 0
BBX 22 37 2 -11
BITMAP
01FC00
0FFF80
1FCFE0
1F03E0
3E01F0
3E01F0
7C01E0
7C01C0
FC0180
FC0000
FC0000
F80000
F80000
F80000
F80000
FC0000
FC0000
FC0000
7C0000
7E0030
3E007C
3E0078
1F00F0
1FE3E0
0FFFC0
01FF00
00E000
01C000
01E000
01FC00
003E00
000600
030E00
070C00
039C00
03FC00
01F800
ENDCHAR
STARTCHAR 00E8
ENCODING 232
SWIDTH 565 0
DWIDTH 26 0
BBX 22 37 2 0
BITMAP
01C000
03E000
07F000
07F800
00FC00
003E00
000F00
000000
000000
000000
000000
00FC00
07FF80
1FCFE0
1F03E0
3E01F0
3E01F8
7E01F8
7C01FC
FC01F8
FC03F8
FC1FF0
FC7FC0
FBFC00
FFC000
FC0000
FC0000
FC0000
FC0000
7C0000
7E0018
3E003C
3E0078
1F00F0
1FE3E0
07FF80
00FE00
ENDCHAR
STARTCHAR 00E9
ENCODING 233
SWIDTH 521 0
DWIDTH 24 0
BBX 22 37 2 0
BITMAP
0000E0
0001F0
0003F0
0007F0
000FC0
001E00
003800
000000
000000
000000
000000
00FC00
07FF80
1FCFE0
1F03E0
3E01F0
3E01F8
7E01F8
7C01FC
FC01F8
FC03F8
FC1FF0
FC7FC0
FBFC00
FFC000
FC0000
FC0000
FC0000
FC0000
7C0000
7E0018
3E003C
3E0078
1F00F0
1FE3E0
07FF80
00FE00
ENDCHAR
STARTCHAR 00EA
ENCODING 234
SWIDTH 521 0
DWIDTH 24 0
BBX 22 37 2 0
BITMAP
007800
00FC00
01FE00
03FE00
03CF00
070380
0E01C0
000000
000000
000000
000000
00FC00
07FF80
1FCFE0
1F03E0
3E01F0
3E01F8
7E01F8
7C01FC
FC01F8
FC03F8
FC1FF0
FC7FC0
FBFC00
FFC000
FC0000
FC0000
FC0000
FC0000
7C0000
7E0018
3E003C
3E0078
1F00F0
1FE3E0
07FF80
00FE00
ENDCHAR
STARTCHAR 00EB
ENCODING 235
SWIDTH 521 0
DWIDTH 24 0
BBX 22 37 2 0
BITMAP
078F00
0F9F00
0F9F00
0F9F00
0F0F00
000000
000000
000000
000000
000000
000000
00FC00
07FF80
1FCFE0
1F03E0
3E01F0
3E01F8
7E01F8
7C01FC
FC01F8
FC03F8
FC1FF0
FC7FC0
FBFC00
FFC000
FC0000
FC0000
FC0000
FC0000
7C0000
7E0018
3E003C
3E0078
1F00F0
1FE3E0
07FF80
00FE00
ENDCHAR
STARTCHAR 00EC
ENCODING 236
SWIDTH 369 0
DWIDTH 17 0
BBX 12 37 2 0
BITMAP
7000
F800
FC00
FE00
3F00
0F80
01C0
0000
0000
0000
0000
0080
0780
1F80
FF80
7F80
1F80
0F80
0F80
0F80
0F80
0F80
0F80
0F80
0F80
0F80
0F80
0F80
0F80
0F80
0F80
0F80
0F80
1F80
3FC0
7FE0
FFF0
ENDCHAR
STARTCHAR 00ED
ENCODING 237
SWIDTH 369 0
DWIDTH 17 0
BBX 12 37 2 0
BITMAP
0180
03C0
07E0
0FE0
1F80
3C00
7000
8000
0000
0000
0000
0080
0780
1F80
FF80
7F80
1F80
0F80
0F80
0F80
0F80
0F80
0F80
0F80
0F80
0F80
0F80
0F80
0F80
0F80
0F80
0F80
0F80
1F80
3FC0
7FE0
FFF0
ENDCHAR
STARTCHAR 00EE
ENCODING 238
SWIDTH 369 0
DWIDTH 17 0
BBX 14 37 0 0
BITMAP
07C0
0FC0
0FE0
1FF0
3C78
7838
600C
8000
0000
0000
0000
0020
01E0
07E0
3FE0
1FE0
07E0
03E0
03E0
03E0
03E0
03E0
03E0
03E0
03E0
03E0
03E0
03E0
03E0
03E0
03E0
03E0
03E0
07E0
0FF0
1FF8
3FFC
ENDCHAR
STARTCHAR 00EF
ENCODING 239
SWIDTH 369 0
DWIDTH 17 0
BBX 13 37 2 0
BITMAP
7878
F8F8
F9F8
F9F8
78F0
3060
0000
0000
0000
0000
0000
0080
0780
1F80
FF80
7F80
1F80
0F80
0F80
0F80
0F80
0F80
0F80
0F80
0F80
0F80
0F80
0F80
0F80
0F80
0F80
0F80
0F80
1F80
3FC0
7FE0
FFF0
ENDCHAR
STARTCHAR 00F1
ENCODING 241
SWIDTH 673 0
DWIDTH 31 0
BBX 29 37 2 0
BITMAP
00780800
00FC1C00
01CE3800
03877000
0303E000
0001C000
00000000
00000000
00000000
00000000
00000000
0081C000
0787FC00
1F0FFF00
FF1FFF80
7F3C1F80
1F780FC0
0EF00FC0
0FE00FC0
0FC00FC0
0F800FC0
0F800FC0
0F800FC0
0F800FC0
0F800FC0
0F800FC0
0F800FC0
0F800FC0
0F800FC0
0F800FC0
0F800FC0
0F800FC0
0F800FC0
1F800FC0
3FC01FE0
7FE03FF0
FFF07FF8
ENDCHAR
STARTCHAR 00F2
ENCODING 242
SWIDTH 847 0
DWIDTH 39 0
BBX 22 37 2 0
BITMAP
01C000
03E000
07F000
07F800
00FC00
003E00
000F00
000000
000000
000000
000000
00FC00
07FF80
1FCFE0
1F03E0
3E01F0
3E01F0
7E01F8
7C01F8
FC00FC
FC00FC
FC00FC
FC00FC
F800FC
F800FC
FC00FC
FC00FC
FC00FC
FC01F8
7C01F8
7E01F0
3E01F0
3E01E0
1F03E0
1FCFC0
07FF80
00FC00
ENDCHAR
STARTCHAR 00F3
ENCODING 243
SWIDTH 565 0
DWIDTH 26 0
BBX 22 37 2 0
BITMAP
000380
0007C0
000FC0
001FC0
003F00
007C00
00E000
000000
000000
000000
000000
00FC00
07FF80
1FCFE0
1F03E0
3E01F0
3E01F0
7E01F8
7C01F8
FC00FC
FC00FC
FC00FC
FC00FC
F800FC
F800FC
FC00FC
FC00FC
FC00FC
FC01F8
7C01F8
7E01F0
3E01F0
3E01E0
1F03E0
1FCFC0
07FF80
00FC00
ENDCHAR
STARTCHAR 00F4
ENCODING 244
SWIDTH 565 0
DWIDTH 26 0
BBX 22 37 2 0
BITMAP
007800
00FC00
01FE00
03FE00
03CF00
070380
0E01C0
000000
000000
000000
000000
00FC00
07FF80
1FCFE0
1F03E0
3E01F0
3E01F0
7E01F8
7C01F8
FC00FC
FC00FC
FC00FC
FC00FC
F800FC
F800FC
FC00FC
FC00FC
FC00FC
FC01F8
7C01F8
7E01F0
3E01F0
3E01E0
1F03E0
1FCFC0
07FF80
00FC00
ENDCHAR
STARTCHAR 00F5
ENCODING 245
SWIDTH 565 0
DWIDTH 26 0
BBX 22 37 2 0
BITMAP
07C080
0FE1C0
1EF3C0
3C7F80
183F00
000000
000000
000000
000000
000000
000000
00FC00
07FF80
1FCFE0
1F03E0
3E01F0
3E01F0
7E01F8
7C01F8
FC00FC
FC00FC
FC00FC
FC00FC
F800FC
F800FC
FC00FC
FC00FC
FC00FC
FC01F8
7C01F8
7E01F0
3E01F0
3E01E0
1F03E0
1FCFC0
07FF80
00FC00
ENDCHAR
STARTCHAR 00F6
ENCODING 246
SWIDTH 565 0
DWIDTH 26 0
BBX 22 37 2 0
BITMAP
03C780
07CF80
0FCF80
0FCF80
078700
000000
000000
000000
000000
000000
000000
00FC00
07FF80
1FCFE0
1F03E0
3E01F0
3E01F0
7E01F8
7C01F8
FC00FC
FC00FC
FC00FC
FC00FC
F800FC
F800FC
FC00FC
FC00FC
FC00FC
FC01F8
7C01F8
7E01F0
3E01F0
3E01E0
1F03E0
1FCFC0
07FF80
00FC00
ENDCHAR
STARTCHAR 00F7
ENCODING 247
SWIDTH 478 0
DWIDTH 22 0
BBX 16 20 4 4
BITMAP
03C0
07E0
07E0
07E0
03C0
0000
0000
0000
0000
FFFF
FFFF
0000
0000
0000
0000
03C0
07E0
07E0
07E0
03C0
ENDCHAR
STARTCHAR 00F8
ENCODING 248
SWIDTH 565 0
DWIDTH 26 0
BBX 22 34 2 -4
BITMAP
0000C0
0000C0
000080
000180
01FD80
0FFF80
1FCFE0
1F03E0
3E07F0
3E07F0
7E0DF8
7C0DF8
FC0DFC
FC18FC
FC18FC
FC10FC
F830FC
F830FC
FC60FC
FC60FC
FC40FC
FCC1FC
7CC1F8
7F81F8
3F81F0
3F81F0
1F03E0
1FCFE0
0FFF80
07FC00
060000
0C0000
0C0000
080000
ENDCHAR
STARTCHAR 00F9
ENCODING 249
SWIDTH 630 0
DWIDTH 29 0
BBX 27 37 1 0
BITMAP
00300000
00780000
00FC0000
00FE0000
003F0000
00078000
0001C000
00002000
00000000
00000000
00000000
03000600
7F00FE00
FF03FE00
3F007E00
1F007E00
1F007E00
1F007E00
1F007E00
1F007E00
1F007E00
1F007E00
1F007E00
1F007E00
1F007E00
1F007E00
1F007E00
1F007E00
1F007E00
1F00FE00
1F00FE00
1F01FE20
1F83FEE0
0FFFFFC0
0FFF8F80
03FF0F00
007C0600
ENDCHAR
STARTCHAR 00FA
ENCODING 250
SWIDTH 630 0
DWIDTH 29 0
BBX 27 37 1 0
BITMAP
0001C000
0003E000
0007E000
000FE000
001F8000
003E0000
00700000
00000000
00000000
00000000
00000000
03000600
7F00FE00
FF03FE00
3F007E00
1F007E00
1F007E00
1F007E00
1F007E00
1F007E00
1F007E00
1F007E00
1F007E00
1F007E00
1F007E00
1F007E00
1F007E00
1F007E00
1F007E00
1F00FE00
1F00FE00
1F01FE20
1F83FEE0
0FFFFFC0
0FFF8F80
03FF0F00
007C0600
ENDCHAR
STARTCHAR 00FB
ENCODING 251
SWIDTH 630 0
DWIDTH 29 0
BBX 27 37 1 0
BITMAP
003C0000
007E0000
00FF0000
01FF0000
01E78000
0381C000
0700E000
00000000
00000000
00000000
00000000
03000600
7F00FE00
FF03FE00
3F007E00
1F007E00
1F007E00
1F007E00
1F007E00
1F007E00
1F007E00
1F007E00
1F007E00
1F007E00
1F007E00
1F007E00
1F007E00
1F007E00
1F007E00
1F00FE00
1F00FE00
1F01FE20
1F83FEE0
0FFFFFC0
0FFF8F80
03FF0F00
007C0600
ENDCHAR
STARTCHAR 00FC
ENCODING 252
SWIDTH 630 0
DWIDTH 29 0
BBX 27 37 1 0
BITMAP
03C78000
07CF8000
07CF8000
07CF8000
07878000
03030000
00000000
00000000
00000000
00000000
00000000
03000600
7F00FE00
FF03FE00
3F007E00
1F007E00
1F007E00
1F007E00
1F007E00
1F007E00
1F007E00
1F007E00
1F007E00
1F007E00
1F007E00
1F007E00
1F007E00
1F007E00
1F007E00
1F00FE00
1F00FE00
1F01FE20
1F83FEE0
0FFFFFC0
0FFF8F80
03FF0F00
007C0600
ENDCHAR
STARTCHAR 00FD
ENCODING 253
SWIDTH 630 0
DWIDTH 29 0
BBX 29 52 0 -15
BITMAP
00003800
00007C00
0000FC00
0001FC00
0003F000
0007C000
000E0000
00000000
00000000
00000000
00000000
00000000
00000000
FFF01FF8
7FE00FF0
3FC007E0
1F8003C0
0FC00380
07C00780
07C00700
03E00F00
03E00E00
01E01E00
01F01C00
00F03C00
00F83800
00787800
00787000
003CF000
003CE000
001DE000
001FC000
000F8000
000F8000
00070000
00070000
000E0000
001E0000
003C0000
003C0000
00780000
00F80000
01F00000
01F00000
03E00000
07E00000
0FC00000
0FC00000
1F800000
3F800000
1F000000
0E000000
ENDCHAR
STARTCHAR 00FF
ENCODING 255
SWIDTH 630 0
DWIDTH 29 0
BBX 29 52 0 -15
BITMAP
001E3C00
003E7C00
007E7C00
007E7C00
003C7800
00183000
00000000
00000000
00000000
00000000
00000000
00000000
00000000
FFF01FF8
7FE00FF0
3FC007E0
1F8003C0
0FC00380
07C00780
07C00700
03E00F00
03E00E00
01E01E00
01F01C00
00F03C00
00F83800
00787800
00787000
003CF000
003CE000
001DE000
001FC000
000F8000
000F8000
00070000
00070000
000E0000
001E0000
003C0000
003C0000
00780000
00F80000
01F00000
01F00000
03E00000
07E00000
0FC00000
0FC00000
1F800000
3F800000
1F000000
0E000000
ENDCHAR
STARTCHAR 0131
ENCODING 305
SWIDTH 369 0
DWIDTH 17 0
BBX 12 26 2 0
BITMAP
0080
0780
1F80
FF80
7F80
1F80
0F80
0F80
0F80
0F80
0F80
0F80
0F80
0F80
0F80
0F80
0F80
0F80
0F80
0F80
0F80
0F80
1F80
3FC0
7FE0
FFF0
ENDCHAR
STARTCHAR 0152
ENCODING 338
SWIDTH 1130 0
DWIDTH 52 0
BBX 46 40 4 -1
BITMAP
0000000000C0
000000000FC0
001FFFFFFFC0
007F0FE007E0
01FC0FC007E0
07F80F8003E0
0FE00F8001E0
0FC00F8001E0
1FC00F8000E0
3F800F800070
3F000F800030
7F000F800000
7E000F800000
7E000F800000
7E000F800000
7E000F800400
FE000FC00C00
FE000FE01C00
FE000FFFFC00
FE000FFFFC00
FE000FE01C00
FE000FC00C00
FE000F800400
FE000F800000
7E000F800000
7E000F800000
7E000F800000
7E000F80000C
7F000F80001C
3F800F800038
3F800F800038
1FC00F800078
0FE00F800078
0FF00F8000F8
07F80F8001F8
03FE0FC001F8
00FFFFFFFFF0
003FFFFFFFF0
000FFFFFFFF0
000000000030
ENDCHAR
STARTCHAR 0153
ENCODING 339
SWIDTH 869 0
DWIDTH 40 0
BBX 38 26 2 0
BITMAP
00FC00FE00
07FF87FFC0
1FCFCFC7E0
1F03CF01F0
3E01DF01F8
3E01DE01F8
7E01DE01FC
7C01DE01FC
FC00FE01FC
FC00FE03F8
FC00FC0FF8
FC00FC7FE0
F800FDFE00
F800FFE000
FC00FE0000
FC00FC0000
FC00FC0000
FC01FE0000
7C01FE0000
7E01EE000C
3E01EE001C
3E01EF0038
1F03EF80F0
1FCFCFF3E0
07FF83FFC0
00FC007F00
ENDCHAR
STARTCHAR 0160
ENCODING 352
SWIDTH 608 0
DWIDTH 28 0
BBX 24 51 2 -1
BITMAP
0C01C0
070380
078F00
03FF00
01FE00
00FC00
00F800
000000
000000
000000
000000
03C010
07FE70
1FFFF8
3FFFF8
7F01F8
7E00F8
7E0078
FC0078
FC003C
FC001C
FE000C
7F0000
7F8000
7FC000
3FE000
1FF000
0FF800
07FC00
03FF00
01FF80
00FFC0
003FE0
001FF0
000FF8
0007FC
0003FC
0001FE
0000FE
C0007E
E0003F
E0003F
F0003E
F8003E
78003E
7C007E
7C01FC
7E07FC
7FFFF0
7FFFC0
303F00
ENDCHAR
STARTCHAR 0161
ENCODING 353
SWIDTH 478 0
DWIDTH 22 0
BBX 19 37 2 0
BITMAP
300300
1C0E00
0E1E00
0FFC00
07F800
03F000
01F000
000000
000000
000000
000000
00C000
0FF200
3FFF00
3FFF00
7E0F00
7C0F00
7C0700
FC0380
7E0180
7F8000
3FC000
1FF000
0FF800
03FE00
01FF00
007F80
003FC0
E00FC0
6007E0
7007C0
7807C0
7807C0
7E0F80
3FBF80
27FF00
01FC00
ENDCHAR
STARTCHAR 0178
ENCODING 376
SWIDTH 673 0
DWIDTH 31 0
BBX 31 48 0 0
BITMAP
003E3C00
007E7C00
007E7C00
007E7C00
003C7800
00000000
00000000
00000000
00000000
00000000
00000000
FFF007FE
7FE003FC
3FC001F8
1F8000F0
0FC000E0
07C001E0
07E001C0
03E00380
03F00380
01F80700
01F80700
00FC0600
007C0E00
007E0C00
003E1C00
003F1800
001FB000
001FF000
000FE000
000FE000
0007C000
0007C000
0007C000
0007C000
0007C000
0007C000
0007C000
0007C000
0007C000
0007C000
0007C000
0007C000
0007C000
000FE000
001FF000
003FF800
007FFC00
ENDCHAR
STARTCHAR 017D
ENCODING 381
SWIDTH 760 0
DWIDTH 35 0
BBX 31 51 2 -1
BITMAP
00600600
00380E00
001C3C00
000F7800
000FF000
0007F000
0003E000
00000000
00000000
00000000
00000000
18000000
1F800000
1FFFFFFE
1FFFFFFC
1F8007F8
1F0007F0
3E000FF0
3C001FE0
38001FC0
38003F80
30007F00
00007F00
0000FE00
0001FC00
0001F800
0003F800
0007F000
0007E000
000FC000
001F8000
001F8000
003F0000
007E0000
007C0000
00FC0000
01F80000
01F00000
03E00000
07C00018
07C00038
0F800038
1F000078
1E0000F8
3C0000F0
7C0001F0
7FE001F0
FFFFF3F0
FFFFFFF0
FFFFFFF0
00000030
ENDCHAR
STARTCHAR 017E
ENCODING 382
SWIDTH 565 0
DWIDTH 26 0
BBX 22 37 2 0
BITMAP
030030
0380E0
01E1C0
00F7C0
007F80
007F00
003E00
000000
000000
000000
000000
100000
180000
1FFFFC
1FFFF8
1E03F0
3C07E0
3807C0
380F80
301F80
003F00
003E00
007C00
00F800
00F800
01F000
03E000
07C000
078000
0F0000
1F001C
3E0018
3C0038
7E0078
FFF878
FFFFF0
FFFFF0
ENDCHAR
STARTCHAR 0243
ENCODING 579
SWIDTH 760 0
DWIDTH 35 0
BBX 32 37 1 0
BITMAP
7FFFF000
3FFFFF80
1FE01FE0
0FC007E0
07C007F0
07C003F0
07C003F8
07C003F8
07C001FC
07C001FC
07C001FC
07C003F8
07C003F0
07C003F0
07C007E0
07C00FC0
07C0FF00
07FFFF00
07FFFFE0
07C0FFF8
07C00FF8
07C003FC
07C003FC
07C001FE
07C000FE
07C000FF
FFFE007F
FFFE00FE
07C000FE
07C000FC
07C001FC
07C001F8
07C007F8
0FC00FF0
1FE03FC0
3FFFFF00
7FFFFC00
ENDCHAR
STARTCHAR 02C6
ENCODING 710
SWIDTH 826 0
DWIDTH 38 0
BBX 14 7 8 30
BITMAP
0F80
0FC0
1FC0
3FE0
7CF0
7078
E01C
ENDCHAR
STARTCHAR 02C7
ENCODING 711
SWIDTH 826 0
DWIDTH 38 0
BBX 14 7 8 30
BITMAP
C01C
E038
78F0
3DE0
1FE0
1FC0
0F80
ENDCHAR
STARTCHAR 02D8
ENCODING 728
SWIDTH 847 0
DWIDTH 39 0
BBX 13 6 7 28
BITMAP
C018
6038
7070
38F0
1FE0
0780
ENDCHAR
STARTCHAR 02D9
ENCODING 729
SWIDTH 826 0
DWIDTH 38 0
BBX 7 7 13 30
BITMAP
78
7E
FE
FE
FE
FC
3C
ENDCHAR
STARTCHAR 02DA
ENCODING 730
SWIDTH 847 0
DWIDTH 39 0
BBX 9 9 9 28
BITMAP
1C00
3E00
6300
C180
C080
C180
6300
3E00
1C00
ENDCHAR
STARTCHAR 02DC
ENCODING 732
SWIDTH 826 0
DWIDTH 38 0
BBX 15 6 10 26
BITMAP
1E00
3F06
778E
E3DC
C1FC
40F8
ENDCHAR
STARTCHAR 2013
ENCODING 8211
SWIDTH 478 0
DWIDTH 22 0
BBX 14 2 4 13
BITMAP
FFFC
FFFC
ENDCHAR
STARTCHAR 2014
ENCODING 8212
SWIDTH 804 0
DWIDTH 37 0
BBX 29 2 4 13
BITMAP
FFFFFFF8
FFFFFFF8
ENDCHAR
STARTCHAR 2018
ENCODING 8216
SWIDTH 195 0
DWIDTH 9 0
BBX 5 11 2 26
BITMAP
80
C0
C0
E0
F0
F0
F8
F8
F8
F8
70
ENDCHAR
STARTCHAR 2019
ENCODING 8217
SWIDTH 195 0
DWIDTH 9 0
BBX 5 11 2 26
BITMAP
70
F8
F8
F8
F8
F0
E0
E0
C0
80
80
ENDCHAR
STARTCHAR 201A
ENCODING 8218
SWIDTH 195 0
DWIDTH 9 0
BBX 5 11 2 -7
BITMAP
70
F8
F8
F8
F8
F0
E0
E0
C0
80
80
ENDCHAR
STARTCHAR 201C
ENCODING 8220
SWIDTH 369 0
DWIDTH 17 0
BBX 13 11 2 26
BITMAP
8100
C180
C1C0
E1C0
F1E0
F1F0
F9F0
F9F8
F9F8
F8F0
7060
ENDCHAR
STARTCHAR 201D
ENCODING 8221
SWIDTH 369 0
DWIDTH 17 0
BBX 13 11 2 26
BITMAP
70E0
F9F0
F9F8
F9F8
F9F0
F1E0
E1E0
E1C0
C180
8180
8100
ENDCHAR
STARTCHAR 201E
ENCODING 8222
SWIDTH 369 0
DWIDTH 17 0
BBX 13 11 2 -7
BITMAP
7060
F8F0
F9F8
F9F8
F9F0
F1F0
E1E0
E1C0
C1C0
8180
8100
ENDCHAR
STARTCHAR 2020
ENCODING 8224
SWIDTH 434 0
DWIDTH 20 0
BBX 20 39 0 0
BITMAP
006000
00F000
01F800
00F800
00F800
00F000
00F000
00F000
00F000
007000
007000
006000
7C63E0
FFFFF0
FFFFF0
FF67F0
706060
006000
006000
006000
006000
007000
007000
00F000
00F000
00F000
00F000
00F000
00F000
00F000
00F000
00F000
00F000
00F800
00F800
01F800
01F800
00F800
007000
ENDCHAR
STARTCHAR 2021
ENCODING 8225
SWIDTH 434 0
DWIDTH 20 0
BBX 20 39 0 0
BITMAP
006000
00F000
01F800
00F800
00F800
00F000
00F000
00F000
00F000
007000
007000
006000
7C63E0
FFFFF0
FFFFF0
FF67F0
706060
006000
006000
006000
006000
006000
006000
7C63E0
FFFFF0
FFFFF0
FF6FF0
7060E0
006000
007000
00F000
00F000
00F000
00F000
00F000
00F800
01F800
00F800
007000
ENDCHAR
STARTCHAR 2022
ENCODING 8226
SWIDTH 434 0
DWIDTH 20 0
BBX 13 13 4 7
BITMAP
1F00
3F80
3FE0
7FF0
FFF8
FFF8
FFF8
FFF0
FFF0
FFE0
3FC0
1FC0
0780
ENDCHAR
STARTCHAR 2026
ENCODING 8230
SWIDTH 630 0
DWIDTH 29 0
BBX 29 7 0 0
BITMAP
780F01E0
7E0FC1F8
FE1FC3F8
FE1FC3F8
FE1FC3F8
7C0F81F0
1C038070
ENDCHAR
STARTCHAR 2030
ENCODING 8240
SWIDTH 1326 0
DWIDTH 61 0
BBX 55 39 4 0
BITMAP
00F80000000000
03FC0000000000
1FFE0078000000
1F3E0070000000
3E1F00F0000000
3E1F80E0000000
3C0F81E0000000
7C0FC1C0000000
7C0FC3C0000000
FC0F8780000000
F80F8780000000
F80F8F00000000
FC1F0E00000000
7C1F1E00000000
3E1E1C00000000
3E3E3C00000000
1F7E3800000000
0FF87800000000
07C0F000000000
0000F000000000
0001E000000000
0001E1FC007F00
0003C3FF80FFE0
000387CF81F9F0
00078F87C1F0F0
00070F87C3E0F0
000F1F03C7E0F8
000E3F03E7C0F8
001E3F03E7C07C
003C1F03F7C07C
003C1F01F7E07C
00781F01F3E07E
00700F83F3E07C
00F00F83E1E0FC
00E00787E1F0F8
01E007C7C0F1F0
01C007EF80FBF0
03C001FF007FE0
0780003E000FC0
ENDCHAR
STARTCHAR 2044
ENCODING 8260
SWIDTH 282 0
DWIDTH 13 0
BBX 9 40 2 -2
BITMAP
0180
0180
0180
0300
0300
0300
0300
0300
0200
0600
0600
0600
0600
0600
0C00
0C00
0C00
0C00
0C00
0800
1800
1800
1800
1800
1800
3000
3000
3000
3000
3000
2000
6000
6000
6000
6000
6000
C000
C000
C000
C000
ENDCHAR
STARTCHAR 20AC
ENCODING 8364
SWIDTH 673 0
DWIDTH 31 0
BBX 29 37 0 0
BITMAP
0003F800
000FFE00
003C1F80
00F80FE0
01F007F0
03E003F8
07E003F8
07C003F8
0FC003F0
0FC003E0
1F8003C0
1F800000
1F800000
1F800000
1F800000
FFFFFF00
3F800000
3F800000
3F800000
3F800000
FFFFF000
FFFFF000
1F800000
1F800000
1F800000
1F800000
1FC00000
0FC00000
0FE00000
07F00000
03F80070
03FC0078
01FE00F0
007F83C0
001FDF80
0007FF00
0001FC00
ENDCHAR
STARTCHAR 2116
ENCODING 8470
SWIDTH 1239 0
DWIDTH 57 0
BBX 53 39 2 -2
BITMAP
FFE000FFC00000
7FF0007F800000
3FF0003F003F00
1FF8001E01FF80
0FFC001E03E7C0
0FFC001E03C3E0
0EFE001E07C3E0
0EFE001E07C1F0
0E7F001E0781F8
0E3F801E0F80F8
0E3F801E0F81F8
0E1FC01E1F81F0
0E1FC01E1F01F0
0E0FE01E1F81F0
0E07F01E0F83E0
0E07F01E0FC3E0
0E03F81E07C3C0
0E03F81E03E7C0
0E01FC1E03FF80
0E00FE1E01FC00
0E00FE1E000000
0E007F1E000000
0E003F1E000000
0E003F9E000000
0E001FDE07FFE0
0E001FDE07FFE0
0E000FFE000000
0E0007FE000000
0E0007FE000000
0E0003FE000000
0E0003FE000000
0E0001FE000000
0E0000FE000000
1E0000FE000000
3F00007E000000
7F80007E000000
FFC0003C000000
00000018000000
00000010000000
ENDCHAR
STARTCHAR 2212
ENCODING 8722
SWIDTH 565 0
DWIDTH 26 0
BBX 22 4 2 13
BITMAP
FFFFFC
FFFFFC
FFFFFC
FFFFFC
ENDCHAR
STARTCHAR 2248
ENCODING 8776
SWIDTH 826 0
DWIDTH 38 0
BBX 20 16 9 8
BITMAP
07C020
0FE0F0
1FF1F0
3FFFE0
7C7FC0
F83F80
601F00
000000
000000
07C020
0FE0F0
1FF1F0
3FFFE0
7CFFC0
F87F80
603F00
ENDCHAR
STARTCHAR 2260
ENCODING 8800
SWIDTH 521 0
DWIDTH 24 0
BBX 22 22 0 4
BITMAP
0003C0
0003C0
000780
000780
000F00
FFFFFC
FFFFFC
FFFFFC
FFFFFC
003C00
007800
007800
00F000
FFFFFC
FFFFFC
FFFFFC
FFFFFC
03C000
038000
078000
070000
0F0000
ENDCHAR
STARTCHAR 2264
ENCODING 8804
SWIDTH 521 0
DWIDTH 24 0
BBX 22 31 2 1
BITMAP
0000E0
0001E0
0007F0
000FE0
001F80
007F00
00FC00
03F000
07C000
1F0000
3E0000
380000
300000
3C0000
3F0000
0F8000
07E000
01F800
00FE00
003F80
001FC0
0007F0
0003F0
0000E0
000060
000000
000000
FFFFFC
FFFFFC
FFFFFC
FFFFFC
ENDCHAR
STARTCHAR 2265
ENCODING 8805
SWIDTH 521 0
DWIDTH 24 0
BBX 22 31 0 1
BITMAP
180000
1E0000
3F0000
1FC000
0FE000
03F800
00FC00
003F00
000F80
0007E0
0001F0
000070
000030
0000F0
0003F0
0007C0
001F80
007E00
01FC00
07F000
0FE000
3F8000
3F0000
1C0000
180000
000000
000000
FFFFFC
FFFFFC
FFFFFC
FFFFFC
ENDCHAR
STARTCHAR 25CA
ENCODING 9674
SWIDTH 565 0
DWIDTH 26 0
BBX 22 37 2 0
BITMAP
007800
00FC00
00FC00
01CE00
01CE00
038F00
078700
070780
0F0380
0E03C0
1E01E0
1E01E0
3C00F0
3C00F0
7800F8
F80078
F0007C
F0003C
F0003C
F0003C
F0007C
F80078
7800F8
3C00F0
3C00F0
1E01E0
1E01E0
0F03C0
0F0380
070780
078700
038F00
01CE00
01CE00
00FC00
00FC00
007800
ENDCHAR
STARTCHAR FB00
ENCODING 64256
SWIDTH 717 0
DWIDTH 33 0
BBX 33 39 2 0
BITMAP
0000004000
007E01FC00
01FFC3BF80
03C7C78F80
07C3CF0780
0783DF0780
0F87FF0F80
0F87FF0F80
0F83BF0700
0F803F0000
0F803F0000
0F803F0000
0F803F0000
0F803F0000
0F803F0000
3FFFFFF800
3FFFFFF800
3FF07FC000
1FC03F0000
0F803F0000
0F803F0000
0F803F0000
0F803F0000
0F803F0000
0F803F0000
0F803F0000
0F803F0000
0F803F0000
0F803F0000
0F803F0000
0F803F0000
0F803F0000
0F803F0000
0F803F0000
0F803F0000
1F803F0000
3FC07F8000
7FE0FFC000
FFF1FFE000
ENDCHAR
STARTCHAR FB01
ENCODING 64257
SWIDTH 673 0
DWIDTH 31 0
BBX 27 39 2 0
BITMAP
000C0000
007FE000
01F3FC00
03E07E00
07C03E00
07807F00
0F807E00
0F80FE00
0F801C00
0F800000
0F800000
0F800000
0F800000
0F800000
0F800000
3FFFFF00
3FFFFF00
3FE0FF00
1F803F00
0F803F00
0F803F00
0F803F00
0F803F00
0F803F00
0F803F00
0F803F00
0F803F00
0F803F00
0F803F00
0F803F00
0F803F00
0F803F00
0F803F00
0F803F00
0F803F00
1F803F00
3FC07F80
7FE0FFC0
FFF1FFE0
ENDCHAR
STARTCHAR FB02
ENCODING 64258
SWIDTH 673 0
DWIDTH 31 0
BBX 27 39 2 0
BITMAP
00000100
007E0F00
01FFFF00
03C7FF00
07C3FF00
0783FF00
0F87FF00
0F87FF00
0F83BF00
0F803F00
0F803F00
0F803F00
0F803F00
0F803F00
0F803F00
3FFE3F00
3FFE3F00
3FF03F00
1FC03F00
0F803F00
0F803F00
0F803F00
0F803F00
0F803F00
0F803F00
0F803F00
0F803F00
0F803F00
0F803F00
0F803F00
0F803F00
0F803F00
0F803F00
0F803F00
0F803F00
1F803F00
3FC07F80
7FE0FFC0
FFF1FFE0
ENDCHAR
STARTCHAR FB03
ENCODING 64259
SWIDTH 1000 0
DWIDTH 46 0
BBX 42 39 2 0
BITMAP
003000180000
00FF00FFC000
01EFC3E7F800
03C3C7C0F800
07C3CF807C00
0783DF00FC00
0F87FF00FC00
0F87FF01FC00
0F83BF003800
0F803F000000
0F803F000000
0F803F000000
0F803F000000
0F803F000000
0F803F000000
3FFFFFFFFC00
3FFFFFFFFC00
3FE07FC1FC00
1F803F007C00
0F803F007C00
0F803F007C00
0F803F007C00
0F803F007C00
0F803F007C00
0F803F007C00
0F803F007C00
0F803F007C00
0F803F007C00
0F803F007C00
0F803F007C00
0F803F007C00
0F803F007C00
0F803F007C00
0F803F007C00
0F803F007C00
1F803F007E00
3FC07F80FF00
7FE0FFC1FF80
FFF1FFE3FFC0
ENDCHAR
STARTCHAR FB04
ENCODING 64260
SWIDTH 1000 0
DWIDTH 46 0
BBX 42 39 2 0
BITMAP
000000400000
007E01FC1C00
01FFC3BFFC00
03C7C78FFC00
07C3CF07FC00
0783DF07FC00
0F87FF0FFC00
0F87FF0FFC00
0F83BF077C00
0F803F007C00
0F803F007C00
0F803F007C00
0F803F007C00
0F803F007C00
0F803F007C00
3FFFFFF87C00
3FFFFFF87C00
3FF07FC07C00
1FC03F007C00
0F803F007C00
0F803F007C00
0F803F007C00
0F803F007C00
0F803F007C00
0F803F007C00
0F803F007C00
0F803F007C00
0F803F007C00
0F803F007C00
0F803F007C00
0F803F007C00
0F803F007C00
0F803F007C00
0F803F007C00
0F803F007C00
1F803F007E00
3FC07F80FF00
7FE0FFC1FF80
FFF1FFE3FFC0
ENDCHAR
ENDFONT
